<svg width="1076" height="382" viewBox="0 0 1076 382" fill="none" xmlns="http://www.w3.org/2000/svg">
<path d="M356.7 11.0501C360.133 17.216 365.117 20.7591 368.136 28.6673C368.636 30.0087 369.008 31.1738 369.304 32.2175C370.826 38.1401 370.286 40.5865 370.911 48.719C371.435 58.6048 368.491 67.9011 368.14 72.2018C367.787 75.8998 366.366 76.4081 364.85 80.1654C364.575 80.7943 364.296 81.5251 364.003 82.3954C362.028 88.1636 359.815 91.5144 356.006 95.3511C355.747 95.6075 355.455 95.9 355.129 96.2241C351.926 98.9396 348.198 106.65 344.013 111.988C342.311 114.112 340.471 115.591 339.263 116.648C336.101 119.394 331.85 120.697 328.526 121.875L328.65 121.803C327.254 122.491 325.937 123.487 324.774 124.171C324.689 124.221 324.604 124.27 324.52 124.317C323.493 124.889 322.6 125.122 322.033 125.373C321.785 125.486 321.703 125.48 321.569 125.503C321.569 125.503 321.569 125.503 321.569 125.503C321.494 125.508 321.408 125.395 321.454 125.221C321.495 125.052 321.629 124.886 321.809 124.757C322.442 124.317 323.17 123.933 323.875 123.356C324.936 122.512 325.908 121.243 327.392 119.903C327.415 119.889 327.482 119.849 327.506 119.838C327.789 119.64 328.079 119.439 328.372 119.234C333.619 115.352 335.475 116.756 341.172 110.886C341.379 110.632 341.572 110.377 341.754 110.121C345.54 104.711 346.239 99.5228 351.612 93.2722C352.375 92.4178 353.165 91.506 353.988 90.5048C357.669 85.8947 358.087 82.5082 359.445 78.0436C360.181 75.3263 361.137 71.7012 362.826 66.3001C366.446 52.6952 364.088 50.0573 361.169 37.9858C360.928 37.2661 360.664 36.5585 360.375 35.882C356.109 25.4145 349.432 10.4176 345.055 9.4936C343.852 9.28776 342.738 9.1557 341.747 9.08338C335.537 8.69109 326.002 8.78481 319.49 11.6222C317.47 12.7074 315.49 14.0174 313.584 15.512C310.673 17.7907 307.929 20.8254 305.595 24.3079C301.803 29.8729 296.949 35.0335 296.452 39.1877C296.089 42.0313 295.778 44.9053 295.456 47.7036C294.538 56.6264 293.345 69.3951 295.703 77.0516C297.646 81.383 298.346 85.2147 299.145 87.8256C299.764 89.9826 300.402 91.6196 301.136 92.9662C303.48 97.212 304.071 100.22 307.591 105.188C308.257 106.056 309.022 106.942 309.922 107.754C313.125 110.61 316.637 114.135 320.083 116.727C321.224 117.549 321.734 117.855 321.508 118.032C321.287 118.199 320.282 118.101 318.908 117.446C314.927 115.473 312.493 112.873 310.355 111.959C309.213 111.451 308.254 111.003 307.394 110.541C304.785 109.002 303.111 106.819 301.783 102.79C300.486 98.6824 298.743 96.9012 297.31 95.3598C296.709 94.6422 296.21 93.8806 295.856 93.0264C294.599 90.2128 295.681 88.797 291.252 79.3626C290.289 77.5576 289.805 75.7436 289.333 73.7005C286.416 56.6426 287.717 47.6627 287.908 41.247C287.965 40.3671 288.066 39.3293 288.208 38.2104C289.228 30.6638 295.664 25.2673 299.328 19.9665C300.756 17.9382 302.272 16.0159 303.779 14.2513C306.336 11.2434 310.396 7.42667 315.582 4.54697C326.409 -0.281794 336.692 0.95817 342.433 0.892288C343.941 0.933593 345.199 1.04803 346.273 1.20232C350.698 2.12249 351.767 3.94208 353.05 5.34574C354.235 6.8583 355.191 8.46641 356.7 11.0501Z" fill="#53081B"/>
<path d="M439.108 136.982C439.106 136.985 439.104 136.989 439.102 136.992C435.135 143.209 433.159 148.699 426.355 153.611C423.527 155.54 421.467 156.456 419.482 157.272C416.446 158.486 413.679 159.374 408.261 160.864C405.083 161.707 401.876 162.056 398.922 162.218C393.207 162.511 388.4 162.073 385.723 162.428C381.637 162.918 381.315 161.004 375.582 160.951C369.837 160.81 366.348 160.122 361.495 158.253C360.655 157.91 359.524 157.494 358.184 156.796C352.268 153.875 342.674 147.554 339.329 144.061C339.013 143.792 338.705 143.508 338.408 143.215C338.324 143.123 338.159 142.826 338.111 142.712C336.247 138.836 335.472 134.249 334.603 130.974L334.628 131.029C334.396 130.338 334.125 129.756 333.79 129.272C333.175 128.384 332.524 127.755 332.021 127.254C331.807 127.044 331.753 126.868 331.817 126.761C331.817 126.761 331.817 126.761 331.817 126.761C331.896 126.63 332.165 126.611 332.507 126.816C333.578 127.446 335.041 128.527 336.125 130.284C336.129 130.294 336.143 130.322 336.147 130.332C336.655 131.229 337.187 132.198 337.765 133.211C339.856 136.905 340.12 138.556 341.143 141.573L340.869 141.109C341.814 142.279 343.032 143.673 345.115 145.235C350.179 148.88 354.44 150.131 360.014 152.744C361.258 153.309 363.045 153.864 365.01 154.433C374.294 156.747 376.832 154.188 390.278 156.08C393.621 156.478 396.244 156.474 398.419 156.239C404.77 155.353 408.238 153.657 414.808 149.616C415.09 149.425 415.393 149.219 415.699 149.009C421.7 144.836 429.379 139.136 432.379 133.903C434.572 129.48 436.037 124.482 436.598 121.307C437.759 114.501 438.71 103.258 432.979 98.429C432.446 97.9911 431.863 97.5835 431.216 97.1926C429.552 96.1744 427.318 95.3591 424.789 94.3238C416.075 90.4622 407.347 87.6075 398.726 88.7497C397.791 88.8519 396.864 88.943 395.947 89.0246C390.72 89.5079 384.697 89.9749 379.279 91.4315C370.487 93.7582 362.405 95.5424 358.126 97.9394C358.119 97.9426 358.113 97.9457 358.107 97.9489C350.719 101.867 348.934 103.104 343.419 108.988C343.183 109.25 342.94 109.519 342.69 109.795C339.685 113.158 335.638 117.399 332.787 121.463C332.045 122.578 331.811 123.084 331.608 122.89C331.41 122.693 331.438 121.686 332 120.351C333.7 116.454 336.123 114.052 336.946 111.969C337.844 109.797 338.563 108.299 339.665 106.884C340.662 105.614 341.978 104.39 344.162 102.928C348.752 99.9227 349.83 97.0526 352.639 95.4253C353.731 94.8127 354.48 94.5908 355.777 94.0186C357.874 93.1108 361.565 91.1877 370.657 87.9847C373.084 87.0993 375.291 86.2977 377.307 85.5139C386.727 82.1825 392.992 81.7091 397.559 80.77C398.654 80.5786 399.664 80.445 400.635 80.3486C407.029 79.1269 419.54 83.5187 427.709 87.3072C428.17 87.4872 428.638 87.6601 429.112 87.8296C431.274 88.6422 434.509 89.6209 437.836 92.109C449.024 101.619 445.053 117.055 444.676 122.83C443.379 131.167 442.259 130.745 439.108 136.982Z" fill="#53081B"/>
<path d="M337.54 229.373C332.68 227.934 328.607 229.233 322.398 225.19C321.106 224.243 319.822 223.125 318.6 221.734C314.085 216.46 314.026 214.38 310.042 209.202C309.538 208.529 309.006 207.779 308.461 206.928C304.708 201.007 304.652 194.364 304.288 190.061C304.153 188.152 304.002 186.58 303.724 185.432C302.824 181.681 304.721 181.157 304.009 175.817C303.317 170.467 303.459 167.178 304 162.46C304.422 158.701 304.823 148.79 305.253 142.221C305.258 142.129 305.332 141.887 305.369 141.803C306.027 140.302 306.494 138.954 306.748 137.928C307.538 134.831 308.832 131.713 310.38 128.852C310.386 128.836 310.409 128.789 310.417 128.773C311.593 126.973 312.988 125.852 313.954 124.858C314.755 124.06 315.442 123.486 315.993 123.074C316.225 122.903 316.41 122.883 316.502 122.965C316.502 122.965 316.502 122.966 316.502 122.966C316.617 123.068 316.592 123.323 316.366 123.61C315.336 124.987 313.5 127.167 312.689 129.903L312.724 129.828C312.719 129.85 312.715 129.873 312.71 129.895C311.689 135.442 310.71 136.026 307.954 143.048L308.109 142.49C308.104 142.659 308.099 142.834 308.096 143.013C308.026 150.843 309.096 155.534 308.579 164.787C308.18 174.071 311.089 176.073 310.444 189.159C310.439 189.284 310.434 189.402 310.429 189.514C310.177 198.493 312.503 201.413 315.978 204.74C317.631 206.327 319.508 208.201 321.914 210.764C324.144 213.136 326.525 215.66 329.002 218.118C334.077 222.383 345.997 223.491 350.892 222.405C350.948 222.395 351.005 222.385 351.061 222.375C356.798 221.218 364.841 220.638 367.924 216.238C369.789 213.911 370.723 212.704 371.449 210.646C372.018 209.043 372.271 207.086 372.262 204.964C372.196 195.303 371.697 184.405 371.34 174.889C371.172 171.627 370.9 168.201 369.593 165.199C366.953 159.057 365.392 152.77 362.962 148.321C361.268 145.183 360.237 142.46 359.286 140.526C357.634 137.053 356.129 135.245 354.242 134.043C352.152 132.749 349.977 131.642 346.383 130.136C342.287 128.444 336.801 125.812 332.067 123.738C329.648 122.808 330.254 122.314 332.969 122.739C336.863 123.459 339.707 124.94 341.826 125.07C346.05 125.387 347.899 125.622 352.105 128.657C353.575 129.736 354.878 130.413 356.072 130.925C358.62 132.098 360.574 133.245 361.781 135.097C363.241 137.404 362.811 138.606 367.101 145.732C368.128 147.284 369.187 149.161 370.316 151.374C372.504 155.718 374.067 159.338 375.673 162.17C379.679 170.351 379.152 175.585 379.763 179.497C380.317 185.016 379.665 195.956 379.865 204.96C379.876 205.453 379.88 205.926 379.876 206.407C379.854 208.393 379.659 210.878 378.753 213.635C377.947 216.365 375.799 219.358 374.403 221.093C371.272 225.547 365.726 227.625 361.873 228.505C357.871 229.458 354.596 229.951 352.331 230.489C352.28 230.501 352.229 230.512 352.179 230.523C344.111 232.023 343.9 230.679 337.54 229.373Z" fill="#53081B"/>
<path d="M220.411 166.758C219.112 161.573 218.07 157.525 217.567 152.764C217.493 149.565 218.636 147.005 220.122 144.856C225.709 137.877 227.733 138.663 234.21 132.47C234.942 131.803 235.69 131.159 236.44 130.537C242.56 125.508 249.034 122.094 251.484 119.621C251.651 119.455 251.813 119.304 251.97 119.167C254.658 116.932 256.102 117.912 260.594 115.045C263.472 113.272 265.869 112.23 268.352 111.465C269.948 110.987 271.588 110.522 273.518 110.027C276.125 109.343 281.76 107.55 287.289 106.68C287.342 106.668 287.5 106.66 287.555 106.661C292.017 106.901 296.303 107.284 298.785 107.384C302.573 107.457 306.908 109.286 309.455 111.751C310.695 112.776 311.712 113.999 312.416 114.942C313.134 115.886 313.583 116.688 313.899 117.328C314.029 117.596 314.012 117.783 313.914 117.858C313.914 117.858 313.914 117.858 313.914 117.858C313.789 117.949 313.544 117.874 313.299 117.588C312.239 116.388 310.669 114.626 308.213 113.614C307.885 113.462 307.558 113.317 307.226 113.185C301.922 111.527 301.534 110.443 293.552 109.937C291.337 109.869 289.325 109.942 287.413 110.043L287.905 110.008C283.192 111.366 279.472 112.981 272.889 115.16C271.882 115.482 270.961 115.808 270.099 116.13C264.578 118.331 262.455 120.923 255.99 124.825C254.728 125.63 253.293 126.471 251.639 127.365C245.789 130.526 243.033 133.001 240.64 135.692C238.167 138.535 235.764 141.505 231.614 146.203C229.434 148.644 227.146 152.059 227.092 153.214C226.717 157.647 226.522 161.809 227.452 164.52C229.585 170.506 229.542 175.507 230.324 178.322C230.683 179.797 231.15 181.206 231.833 182.363C234.638 187.405 238.97 191.256 245.521 191.297C246.738 191.322 247.881 191.356 249.105 191.398C259 191.415 273.593 192.287 281.427 189.457C282.504 188.921 283.545 188.367 284.547 187.793C287.756 185.976 290.963 183.372 293.518 179.954C297.705 174.454 302.192 169.948 304.162 165.395C305.312 162.839 306.408 160.655 307.283 158.951C309.522 154.614 310.736 152.226 311.703 149.422C312.322 147.544 312.645 145.273 312.9 142.026C313.246 137.498 313.874 131.258 314.748 125.951C315.165 123.276 315.72 123.876 315.934 126.602C316.222 130.599 315.75 133.836 316.277 135.936C317.284 140.141 317.728 141.99 316.024 147.183C315.607 148.378 315.311 149.463 314.999 150.52C314.067 153.644 314.217 155.893 313.168 157.991C312.122 160.109 311.17 160.275 308.601 167.084C307.822 169.234 306.576 171.815 304.754 174.769C302.555 178.319 300.492 181.112 299.011 183.617C294.446 191.036 289.003 194.406 285.299 196.619C284.695 196.966 284.085 197.269 283.487 197.529C275.997 200.576 264.341 198.607 254.847 199.143C252.31 199.23 249.064 199.267 245.525 199.295C236.767 200.108 227.438 192.22 224.736 186.265C223.363 183.845 222.778 181.706 222.314 180.165C220.231 172.396 221.756 172.461 220.598 167.393C220.534 167.188 220.471 166.975 220.411 166.758Z" fill="#53081B"/>
<path d="M212.323 72.6937C212.251 78.3069 215.877 84.0436 217.564 87.9194C217.825 88.3345 218.069 88.753 218.301 89.1797C220.692 93.6518 221.157 95.8382 222.605 98.5392C223.65 100.385 224.672 102.231 226.874 104.577C228.079 105.861 229.319 107.136 230.563 108.382C232.716 110.582 235.632 111.962 238.544 113.231C240.185 113.969 242.234 114.207 243.625 114.182C245.54 114.138 246.706 114.562 248.066 115.206C249.429 115.9 250.553 116.652 253.493 116.749C259.053 116.868 262.537 117.175 267.491 117.937C269.333 118.21 272.573 118.482 276.259 118.646C281.683 118.997 287.795 117.936 291.586 116.732C292.139 116.576 292.639 116.43 293.075 116.29C296.021 115.333 299.248 115.179 301.931 114.694L301.898 114.705C304.886 114.169 307.11 114.615 308.948 114.645C309.011 114.648 309.074 114.651 309.136 114.654L309.102 114.656C310.238 114.68 310.542 114.525 310.77 113.815C310.859 113.542 310.977 113.4 311.102 113.4C311.102 113.4 311.102 113.4 311.102 113.4C311.252 113.402 311.422 113.626 311.374 114.07C311.33 114.451 311.172 115.005 310.679 115.338C310.202 115.658 309.691 115.73 309.206 115.823C309.201 115.824 309.185 115.825 309.179 115.825C307.604 116.036 305.662 116.336 303.783 117.018C303.404 117.161 303.065 117.305 302.812 117.445C302.805 117.447 302.786 117.454 302.779 117.456C298.489 119.233 296.838 118.601 292.155 119.596C291.194 119.801 290.067 120.105 288.719 120.466C284.132 121.699 280.343 122.417 276.239 122.644C272.901 122.822 269.357 122.843 264.778 122.399C257.332 121.547 253.975 123.228 246.591 121.648C244.736 121.218 241.845 121.075 237.832 119.574C237.278 119.353 236.733 119.112 236.199 118.838C232.125 116.763 228.711 115.034 226.153 112.894C222.899 110.329 219.519 107.891 215.907 103.438C214.972 102.332 214.047 101.092 213.117 99.7021C211.696 97.5872 210.38 95.2982 209.146 93.2798C204.397 82.1568 204.636 73.722 205.172 65.231C205.54 62.2324 206.202 59.5287 206.835 57.4535C207.074 56.6541 207.346 55.8465 207.64 55.043C208.686 52.3375 209.482 49.0259 212.189 45.2485C214.505 42.3426 216.884 38.3559 222.545 35.9826C226.097 34.9103 228.437 34.7345 231.383 34.4029C238.139 33.9094 245.558 32.7676 254.208 35.2462C258.593 36.6886 263.092 38.8285 266.798 42.1282C268.267 43.4435 269.747 44.7527 271.197 46.0697C273.204 47.8994 275.417 49.838 277.737 52.0074C281.065 55.2271 285.238 58.0625 288.878 62.2142C293.124 66.9232 297.92 71.8327 300.127 75.2821C300.906 76.4089 301.556 77.4232 302.131 78.3553C304.323 81.9698 305.762 84.0914 307.447 87.5219C308.086 88.8742 308.772 90.417 309.565 92.299C311.438 96.7722 313.328 103.17 313.874 108.844C314.015 111.732 313.419 111.1 312.558 108.478C311.207 104.612 310.408 101.31 309.118 99.5074C306.493 95.9324 305.492 94.4107 304.23 89.3613C304.197 89.2402 304.165 89.1232 304.132 89.0101C302.74 84.6576 299.747 83.5537 298.21 81.1364C298.165 81.0676 298.121 80.998 298.077 80.9275C296.291 78.4955 298.127 77.4751 285.869 67.1376C285.468 66.7729 285.069 66.3969 284.672 65.9932C281.005 62.6867 276.469 60.0989 273.142 57.4003C268.254 53.6508 264.517 50.8961 261.691 48.6053C261.601 48.5337 261.511 48.4603 261.419 48.3851C259.438 46.7401 256.061 44.444 251.603 42.7671C247.938 41.3448 242.553 41.1213 238.087 41.5425C234.789 41.8524 229.19 42.4829 225.382 43.5573C223.345 44.2968 220.793 47.2337 218.595 50.2218C217.138 52.1891 216.105 55.4373 215.236 57.9712C214.998 58.684 214.817 59.3233 214.685 59.8918C214.024 62.8363 213.8 64.4941 213.41 65.9653C212.977 67.6899 212.401 69.192 212.323 72.6937Z" fill="#53081B"/>
<path d="M893.848 161.731C900.822 162.813 906.681 161.058 914.774 163.538C916.139 163.968 917.287 164.391 918.293 164.798C923.9 167.238 925.498 169.168 932.297 173.673C940.417 179.336 945.941 187.372 949.117 190.292C951.817 192.844 951.345 194.277 953.377 197.782C953.704 198.386 954.109 199.055 954.615 199.821C957.952 204.924 959.235 208.729 959.92 214.092C959.963 214.454 960.014 214.864 960.07 215.32C960.243 219.516 964.034 227.196 965.672 233.779C966.301 236.426 966.337 238.786 966.429 240.389C966.651 244.571 965.065 248.725 963.952 252.071L963.972 251.93C963.656 253.453 963.632 255.104 963.457 256.442C963.445 256.54 963.431 256.637 963.417 256.732C963.237 257.894 962.871 258.742 962.721 259.343C962.657 259.608 962.602 259.669 962.538 259.789C962.538 259.789 962.538 259.789 962.538 259.789C962.495 259.851 962.354 259.85 962.244 259.706C962.137 259.57 962.089 259.362 962.097 259.141C962.139 258.371 962.284 257.562 962.262 256.651C962.248 255.295 961.845 253.748 961.7 251.754C961.703 251.727 961.712 251.649 961.718 251.624C961.736 251.279 961.755 250.927 961.774 250.57C961.938 244.045 964.186 243.443 963.056 235.341C962.983 235.023 962.901 234.713 962.81 234.413C960.87 228.101 957.208 224.361 955.58 216.28C955.374 215.154 955.141 213.97 954.857 212.706C953.483 206.968 951.068 204.557 948.381 200.742C946.69 198.491 944.418 195.509 941.196 190.857C932.689 179.639 929.159 179.878 917.843 174.761C917.127 174.509 916.406 174.282 915.696 174.094C904.816 171.026 888.883 167.075 885.463 169.96C884.562 170.782 883.773 171.58 883.107 172.317C878.98 176.975 873.194 184.553 871.429 191.434C871.044 193.695 870.861 196.061 870.868 198.483C870.876 202.181 871.584 206.21 872.896 210.192C874.955 216.603 876.043 223.604 879.013 226.55C881.034 228.584 883.109 230.595 885.119 232.569C891.593 238.778 900.932 247.567 908.421 250.412C913.032 251.542 916.484 253.345 919.035 254.32C921.117 255.157 922.8 255.66 924.314 255.908C929.104 256.669 931.84 258.052 937.922 258.328C939.016 258.336 940.185 258.278 941.379 258.068C945.6 257.296 950.54 256.692 954.703 255.567C956.051 255.172 956.607 254.958 956.608 255.245C956.604 255.522 955.908 256.255 954.547 256.936C950.544 258.863 946.997 259.185 944.962 260.31C943.859 260.899 942.916 261.379 942.023 261.774C939.206 262.886 936.455 262.865 932.461 261.437C928.423 259.935 925.947 260.215 923.85 260.398C922.915 260.431 922.007 260.356 921.116 260.11C918.124 259.373 917.672 257.649 907.508 255.344C905.492 254.994 903.764 254.261 901.863 253.377C886.614 245.194 880.33 238.648 875.387 234.555C874.727 233.969 873.971 233.251 873.176 232.451C867.85 227.009 867.549 218.615 865.619 212.467C864.897 210.093 864.312 207.717 863.847 205.443C863.046 201.577 862.53 196.029 863.447 190.168C866.292 178.659 873.59 171.311 877.067 166.742C878.027 165.577 878.89 164.656 879.672 163.903C883.118 160.978 885.21 161.253 887.106 161.104C889.027 161.099 890.883 161.333 893.848 161.731Z" fill="#53081B"/>
<path d="M1043.84 174.128C1043.84 174.131 1043.84 174.135 1043.84 174.138C1046.31 181.089 1049.42 186.022 1049.11 194.408C1048.9 197.824 1048.35 200.012 1047.78 202.08C1046.87 205.221 1045.87 207.95 1043.71 213.139C1042.43 216.164 1040.73 218.908 1039.04 221.338C1035.76 226.026 1032.46 229.548 1031.1 231.878C1028.97 235.403 1027.26 234.48 1023.7 238.97C1020.06 243.415 1017.37 245.744 1012.91 248.424C1012.12 248.875 1011.1 249.512 1009.73 250.14C1003.79 253.012 992.904 256.693 988.092 257.185C987.685 257.27 987.273 257.338 986.859 257.392C986.735 257.402 986.399 257.35 986.28 257.317C982.077 256.406 977.982 254.198 974.864 252.87L974.923 252.884C974.236 252.642 973.61 252.498 973.022 252.465C971.944 252.405 971.047 252.531 970.344 252.62C970.046 252.66 969.874 252.594 969.829 252.479C969.829 252.478 969.829 252.478 969.829 252.478C969.774 252.335 969.924 252.112 970.296 251.968C971.451 251.51 973.203 251.02 975.256 251.245C975.266 251.248 975.296 251.254 975.306 251.257C976.327 251.408 977.418 251.584 978.572 251.751C982.771 252.372 984.236 253.178 987.245 254.225L986.71 254.156C988.214 254.13 990.063 254.026 992.574 253.343C998.563 251.589 1002.17 248.996 1007.66 246.206C1008.87 245.571 1010.4 244.504 1012.06 243.303C1019.59 237.402 1019.13 233.827 1028.89 224.384C1031.26 221.991 1032.87 219.92 1034.02 218.059C1037.22 212.505 1038.02 208.727 1038.87 201.061C1038.89 200.721 1038.91 200.355 1038.94 199.985C1039.33 192.686 1039.56 183.126 1037.27 177.543C1035.13 173.095 1032.09 168.867 1029.93 166.473C1025.27 161.374 1016.99 153.714 1009.66 155.266C1008.98 155.417 1008.3 155.627 1007.6 155.897C1005.77 156.583 1003.76 157.845 1001.39 159.203C992.983 163.704 985.367 168.834 980.97 176.336C980.475 177.137 979.977 177.924 979.478 178.697C976.647 183.118 973.313 188.156 971.132 193.324C967.563 201.69 964.004 209.162 963.264 214.011C963.263 214.018 963.261 214.024 963.26 214.031C961.81 222.267 961.688 224.436 962.94 232.402C963.002 232.749 963.065 233.106 963.129 233.473C963.935 237.911 964.793 243.71 966.246 248.456C966.669 249.727 966.925 250.223 966.647 250.263C966.369 250.299 965.593 249.658 964.885 248.394C962.856 244.657 962.45 241.27 961.313 239.34C960.152 237.298 959.413 235.809 958.973 234.07C958.584 232.504 958.428 230.713 958.616 228.091C959.067 222.624 957.466 220.009 957.909 216.793C958.096 215.556 958.382 214.829 958.728 213.453C959.3 211.242 960.053 207.148 963.114 198.008C963.907 195.549 964.631 193.315 965.252 191.243C968.414 181.765 971.891 176.532 973.958 172.352C974.48 171.371 974.995 170.492 975.516 169.667C978.482 163.873 989.636 156.703 997.645 152.588C998.071 152.335 998.495 152.071 998.92 151.802C1000.89 150.596 1003.65 148.645 1007.66 147.551C1022.04 144.571 1031.77 157.191 1036.09 161.037C1041.87 167.185 1040.85 167.808 1043.84 174.128Z" fill="#53081B"/>
<path d="M1054.29 311.032C1050.17 313.982 1048.69 317.993 1041.68 320.406C1040.14 320.843 1038.47 321.168 1036.62 321.277C1029.69 321.597 1028.01 320.365 1021.48 320.325C1020.63 320.309 1019.72 320.268 1018.71 320.175C1011.73 319.496 1006.46 315.457 1002.84 313.1C1001.25 312.033 999.919 311.186 998.843 310.7C995.331 309.103 996.083 307.285 991.433 304.564C986.788 301.822 984.281 299.688 980.892 296.362C978.186 293.719 970.614 287.311 965.697 282.935C965.627 282.874 965.482 282.667 965.438 282.586C964.659 281.144 963.883 279.947 963.229 279.117C961.272 276.59 959.608 273.652 958.303 270.673C958.294 270.658 958.27 270.611 958.262 270.595C957.566 268.561 957.539 266.772 957.348 265.399C957.212 264.277 957.181 263.382 957.195 262.694C957.202 262.406 957.3 262.248 957.422 262.226C957.422 262.226 957.422 262.226 957.422 262.226C957.574 262.199 957.76 262.374 957.846 262.729C958.3 264.388 958.891 267.176 960.551 269.498L960.513 269.424C960.527 269.441 960.542 269.459 960.558 269.476C964.305 273.691 964.164 274.821 968.009 281.312L967.665 280.847C967.795 280.955 967.93 281.066 968.069 281.179C974.202 286.046 978.56 288.086 985.542 294.181C992.62 300.202 995.987 299.137 1005.91 307.689C1006.01 307.77 1006.1 307.846 1006.18 307.919C1013.11 313.637 1016.84 313.597 1021.61 312.9C1023.87 312.572 1026.5 312.243 1030 311.921C1033.25 311.619 1036.7 311.292 1040.16 310.85C1046.65 309.468 1054.85 300.746 1057 296.217C1057.03 296.167 1057.05 296.117 1057.08 296.066C1059.69 290.829 1064.18 284.128 1062.6 278.991C1061.91 276.091 1061.53 274.612 1060.36 272.774C1059.44 271.34 1058.05 269.937 1056.38 268.64C1048.71 262.754 1039.81 256.45 1032.09 250.883C1029.41 249.01 1026.54 247.119 1023.37 246.305C1016.9 244.612 1010.98 241.98 1005.98 241.162C1002.46 240.569 999.681 239.709 997.571 239.27C993.815 238.439 991.464 238.514 989.356 239.265C987.05 240.118 984.841 241.154 981.444 243.062C977.592 245.253 972.144 247.964 967.598 250.423C965.378 251.76 965.36 250.977 967.364 249.097C970.326 246.468 973.242 245.135 974.647 243.543C977.494 240.407 978.815 239.092 983.795 237.64C985.549 237.143 986.883 236.532 988.022 235.904C990.513 234.616 992.618 233.78 994.821 233.965C997.538 234.232 998.223 235.31 1006.48 236.305C1008.34 236.449 1010.47 236.768 1012.91 237.238C1017.68 238.182 1021.49 239.173 1024.72 239.647C1033.63 241.516 1037.44 245.148 1040.9 247.071C1045.59 250.026 1053.82 257.264 1061.05 262.641C1061.44 262.935 1061.82 263.223 1062.19 263.521C1063.75 264.76 1065.59 266.441 1067.2 268.85C1068.86 271.164 1069.9 274.698 1070.41 276.865C1072 282.073 1070.23 287.724 1068.56 291.305C1066.85 295.048 1065.23 297.933 1064.26 300.051C1064.24 300.099 1064.22 300.146 1064.19 300.192C1060.42 307.478 1059.23 306.818 1054.29 311.032Z" fill="#53081B"/>
<path d="M932.906 364.94C928.017 362.778 924.183 361.112 920.119 358.582C917.55 356.674 916.233 354.199 915.452 351.706C913.38 343.01 915.244 341.896 914.339 332.981C914.264 331.993 914.215 331.007 914.186 330.033C913.981 322.115 915.267 314.91 914.821 311.457C914.793 311.224 914.774 311.003 914.762 310.794C914.651 307.3 916.312 306.764 916.811 301.459C917.182 298.099 917.833 295.567 918.756 293.139C919.359 291.586 920 290.006 920.797 288.18C921.859 285.703 923.909 280.156 926.62 275.26C926.644 275.21 926.735 275.081 926.769 275.038C929.701 271.666 932.637 268.52 934.241 266.624C936.627 263.681 940.735 261.386 944.245 260.891C945.815 260.543 947.405 260.493 948.581 260.517C949.767 260.531 950.677 260.67 951.375 260.814C951.666 260.876 951.804 261.004 951.802 261.128C951.802 261.128 951.802 261.128 951.802 261.128C951.798 261.282 951.588 261.429 951.212 261.447C949.613 261.546 947.259 261.701 944.951 263.016C944.629 263.182 944.314 263.351 944.006 263.531C939.438 266.696 938.344 266.336 933.039 272.322C931.624 274.027 930.445 275.658 929.35 277.229L929.625 276.819C927.799 281.372 926.786 285.298 924.459 291.831C924.094 292.823 923.785 293.75 923.51 294.628C921.852 300.336 922.592 303.603 921.696 311.101C921.555 312.592 921.337 314.24 921.026 316.094C919.923 322.652 920.182 326.347 920.834 329.889C921.557 333.587 922.422 337.307 923.577 343.469C924.163 346.689 925.45 350.593 926.328 351.345C929.594 354.366 932.758 357.078 935.468 358.011C941.5 360.007 945.419 363.115 948.12 364.228C949.505 364.852 950.903 365.349 952.235 365.521C957.936 366.407 963.637 365.358 967.695 360.215C968.464 359.271 969.193 358.39 969.978 357.451C976.073 349.655 985.73 338.68 988.313 330.761C988.552 329.582 988.755 328.421 988.918 327.277C989.457 323.629 989.375 319.499 988.249 315.383C986.484 308.7 985.687 302.39 983.307 298.038C981.997 295.561 980.949 293.353 980.141 291.615C978.097 287.184 976.959 284.758 975.341 282.272C974.241 280.63 972.648 278.979 970.243 276.782C966.884 273.726 962.348 269.395 958.699 265.444C956.846 263.471 957.66 263.402 959.942 264.909C963.271 267.138 965.534 269.5 967.515 270.375C971.451 272.166 973.183 272.952 976.231 277.488C976.918 278.551 977.592 279.452 978.234 280.347C980.125 283.003 981.991 284.266 983.001 286.383C984.029 288.511 983.576 289.363 987.367 295.575C988.584 297.511 989.854 300.08 991.064 303.333C992.514 307.249 993.449 310.593 994.514 313.301C997.561 321.463 996.873 327.827 996.342 332.109C996.245 332.798 996.109 333.466 995.946 334.097C993.747 341.878 985.029 349.863 979.617 357.682C978.126 359.736 976.16 362.32 974.007 365.128C969.265 372.536 957.31 375.047 950.951 373.518C948.198 373.114 946.151 372.26 944.65 371.679C937.242 368.547 938.231 367.384 933.522 365.183C933.32 365.107 933.113 365.026 932.906 364.94Z" fill="#53081B"/>
<path d="M853.735 313.505C858.118 317.012 864.872 317.678 868.966 318.729C869.454 318.779 869.934 318.843 870.414 318.923C875.411 319.785 877.422 320.762 880.442 321.28C882.54 321.589 884.625 321.918 887.828 321.624C889.582 321.462 891.35 321.268 893.097 321.052C896.156 320.706 899.037 319.254 901.828 317.737C903.419 316.896 904.866 315.426 905.701 314.313C906.843 312.776 907.895 312.117 909.239 311.44C910.624 310.791 911.907 310.367 913.791 308.108C917.303 303.795 919.686 301.235 923.332 297.795C924.68 296.511 926.885 294.122 929.28 291.315C932.891 287.252 935.811 281.779 937.191 278.048C937.408 277.516 937.6 277.032 937.757 276.602C938.813 273.69 940.675 271.05 941.942 268.636L941.93 268.668C943.343 265.982 945.062 264.501 946.216 263.07C946.257 263.022 946.297 262.975 946.338 262.927L946.319 262.955C947.036 262.075 947.101 261.739 946.681 261.123C946.52 260.885 946.48 260.705 946.558 260.606C946.558 260.606 946.558 260.606 946.558 260.606C946.652 260.489 946.933 260.492 947.253 260.803C947.527 261.073 947.867 261.537 947.826 262.131C947.785 262.704 947.528 263.151 947.304 263.591C947.301 263.595 947.292 263.609 947.289 263.614C946.487 264.986 945.53 266.702 944.913 268.603C944.793 268.99 944.698 269.346 944.653 269.632C944.651 269.638 944.644 269.658 944.641 269.664C943.407 274.14 941.893 275.055 939.799 279.36C939.371 280.244 938.918 281.32 938.374 282.605C936.527 286.982 934.765 290.412 932.421 293.788C930.51 296.531 928.349 299.339 925.184 302.679C919.936 308.028 919.198 311.71 913.413 316.563C911.934 317.762 910.044 319.955 906.394 322.198C905.879 322.498 905.354 322.78 904.81 323.033C900.669 324.971 897.206 326.602 893.946 327.304C889.923 328.295 885.922 329.462 880.189 329.574C878.742 329.632 877.196 329.599 875.528 329.479C872.986 329.3 870.372 328.931 868.021 328.664C856.328 325.574 849.822 320.2 843.453 314.559C841.314 312.425 839.588 310.241 838.34 308.467C837.857 307.787 837.387 307.076 836.934 306.35C835.443 303.862 833.32 301.199 832.003 296.742C831.135 293.129 829.453 288.802 831.06 282.878C832.397 279.417 833.697 277.463 835.246 274.935C839.009 269.303 842.668 262.749 849.94 257.449C853.773 254.877 858.226 252.643 863.107 251.748C865.047 251.398 866.99 251.034 868.92 250.701C871.597 250.242 874.486 249.688 877.623 249.191C882.209 248.545 887.01 246.996 892.522 246.677C898.846 246.221 905.667 245.455 909.744 245.835C911.111 245.913 912.311 246.024 913.4 246.143C917.599 246.635 920.156 246.805 923.898 247.584C925.358 247.911 926.996 248.318 928.969 248.849C933.648 250.121 939.856 252.562 944.668 255.619C947.032 257.283 946.167 257.365 943.57 256.432C939.69 255.121 936.594 253.723 934.379 253.633C929.946 253.506 928.13 253.36 923.372 251.252C923.256 251.203 923.144 251.157 923.034 251.113C918.746 249.536 916.036 251.218 913.184 250.945C913.102 250.938 913.02 250.931 912.937 250.922C909.921 250.836 910.245 248.76 894.556 252.076C894.022 252.168 893.48 252.252 892.918 252.316C888.055 253.177 883.226 255.165 879.053 256.13C873.091 257.681 868.621 258.936 865.077 259.758C864.966 259.784 864.852 259.81 864.736 259.837C862.221 260.389 858.334 261.641 854.271 264.127C850.897 266.143 847.411 270.254 844.998 274.036C843.215 276.828 840.272 281.631 838.778 285.296C838.11 287.357 838.858 291.175 839.864 294.745C840.52 297.104 842.447 299.916 843.912 302.158C844.328 302.784 844.721 303.32 845.088 303.774C847.005 306.105 848.175 307.3 849.096 308.512C850.19 309.914 851.021 311.291 853.735 313.505Z" fill="#53081B"/>
<path d="M109.659 230.276C109.771 234.694 112.9 237.822 112.626 243.091C112.592 243.663 112.541 244.191 112.476 244.658C111.777 249.299 110.338 250.233 109.072 255.556C107.492 261.537 103.741 266.328 102.985 268.958C102.238 271.402 100.747 270.942 98.9937 273.518C98.8403 273.732 98.6841 273.969 98.5238 274.235C96.5601 277.468 94.6501 279.168 91.6317 280.812C91.2462 281.018 90.7716 281.287 90.2236 281.592C87.6306 282.817 84.1531 286.743 81.0529 289.247C80.0086 290.086 79.0086 290.675 78.296 291.146C75.8908 292.718 72.8961 292.605 70.7057 292.608L70.8476 292.569C70.0353 292.652 69.1244 292.959 68.361 293.16C68.2625 293.187 68.1647 293.21 68.0679 293.231C67.3776 293.377 66.8256 293.331 66.4883 293.336C66.3422 293.334 66.2721 293.259 66.1396 293.237C66.1395 293.237 66.1394 293.237 66.1394 293.237C66.0672 293.216 66.0105 293.118 66.0615 292.99C66.11 292.865 66.2274 292.762 66.3618 292.706C66.8011 292.532 67.2436 292.41 67.6876 292.169C68.3786 291.809 69.0545 291.177 70.1283 290.514C70.1542 290.506 70.2304 290.482 70.257 290.478C70.5259 290.354 70.8021 290.227 71.081 290.094C74.6602 288.256 75.6888 289.717 79.3509 286.929C79.3966 286.888 79.4425 286.846 79.4887 286.802C82.4227 283.992 83.4596 280.868 87.5785 277.936C88.308 277.437 89.0883 276.906 89.9505 276.303C92.63 274.379 93.2458 272.355 94.4414 270.082C95.1956 268.477 96.3352 266.379 98.7212 263.37C103.885 256.372 101.825 253.901 102.663 246.608C102.693 245.983 102.708 245.355 102.695 244.772C102.624 241.048 102.723 237.067 102.532 233.563C102.437 231.82 102.262 230.186 101.973 228.93C101.832 228.307 101.655 227.781 101.516 227.473C101.382 227.154 101.29 227.141 101.6 227.31C101.226 227.096 100.857 226.91 100.512 226.757C97.5498 225.399 92.0139 223.953 89.2766 224.427C87.8165 224.782 86.2983 225.344 84.7683 226.067C83.1444 226.834 81.5143 227.968 79.9889 229.341C76.7211 232.182 73.2978 234.647 72.5404 236.551C71.6517 238.496 70.7628 240.476 69.8333 242.366C67.4498 247.296 64.1581 254.539 63.6148 259.054C63.6332 262.072 63.1273 264.419 62.9149 266.083C62.6983 267.59 62.6242 268.728 62.692 269.713C62.92 272.546 62.6918 274.416 63.4807 277.889C63.6771 278.645 63.9122 279.442 64.2527 280.206C65.2991 282.502 66.246 285.192 67.2818 287.45C67.6543 288.224 67.8209 288.578 67.6031 288.698C67.3867 288.813 66.7453 288.547 66.0771 287.851C64.1567 285.791 63.5138 283.676 62.2885 282.741C61.8053 282.361 61.383 282.019 61.0099 281.689C59.366 279.956 58.8609 278.13 59.3126 275.269C59.7296 272.807 58.9501 271.472 58.3553 270.434C58.0553 269.727 57.8643 269.03 57.892 268.313C57.9264 266.379 59.1503 265.691 58.6202 259.513C58.4614 258.121 58.5549 256.942 58.6767 255.615C60.1955 244.854 62.4894 239.825 63.7311 236.03C64.0232 235.22 64.4552 234.235 64.9945 233.137C67.4333 228.228 72.3115 226.075 75.0194 223.604C75.8217 222.906 76.6272 222.237 77.4165 221.601C79.5705 219.865 83.0063 217.7 87.2613 216.58C95.4497 215.352 100.532 218.27 104.036 219.331C104.604 219.54 105.113 219.758 105.563 219.977C107.826 221.262 108.342 222.524 108.809 223.386C109.223 224.277 109.366 224.971 109.462 225.652C109.629 226.993 109.572 228.251 109.659 230.276Z" fill="#53081B"/>
<path d="M127.427 320.322C127.31 320.435 127.202 320.543 127.102 320.646C126.99 320.763 126.877 320.886 126.776 320.996C123.92 323.954 122.471 327.631 118.015 329.352C115.402 330.284 113.832 330.228 112.048 330.36C110.408 330.493 108.65 330.644 105.91 330.76C103.557 330.845 101.355 330.374 99.4607 329.831C96.3908 328.935 94.0666 327.813 92.533 327.671C90.0389 327.402 90.5252 325.543 87.2755 324.545C84.0235 323.468 82.237 322.3 80.0327 319.862C79.7668 319.553 79.4362 319.189 79.0503 318.683C76.713 315.762 72.7805 309.388 71.5825 306.593C71.5456 306.497 71.5157 306.209 71.511 306.105C71.5105 306.103 71.51 306.101 71.5095 306.098C70.9058 303.439 71.828 300.519 72.2848 298.407L72.2874 298.462C72.3607 298.015 72.3868 297.631 72.34 297.284C72.2614 296.692 72.1222 296.195 72.0184 295.786C71.974 295.614 72.0272 295.477 72.1271 295.403C72.1272 295.403 72.1273 295.403 72.1273 295.403C72.2514 295.313 72.452 295.327 72.5986 295.515C73.0747 296.105 73.6788 297.079 73.9951 298.331C73.9953 298.34 73.9977 298.369 73.9973 298.379C74.1282 298.949 74.2709 299.559 74.4412 300.198C75.1657 302.949 74.666 303.809 74.5858 306.15L74.5152 305.668C74.7239 306.373 75.0292 307.193 75.5963 308.144C77.5699 311.305 79.8104 312.664 82.3316 315.571C82.6237 315.92 83.2095 316.467 83.8721 317.049C88.0913 320.371 90.5211 318.392 97.0992 322.479C98.5132 323.303 99.7353 323.783 100.795 324.028C104.455 324.795 106.602 323.548 109.546 322.195C109.972 321.999 110.449 321.786 110.973 321.56C114.48 320.051 119.062 318.113 121.121 316.257C123.187 314.168 125.152 311.405 126.014 309.644C127.915 305.877 130.21 299.165 128.877 296.219C128.862 296.187 128.848 296.155 128.833 296.124C128.439 295.196 127.383 294.219 125.769 292.708C121.857 288.767 118.524 286.215 114.5 285.318C114.124 285.232 113.753 285.142 113.388 285.049C110.447 284.307 107.171 283.414 104.191 283.241C99.0686 282.988 94.7342 282.495 91.9882 283.069C91.7806 283.104 91.5841 283.138 91.3942 283.172C86.6829 284.111 85.4798 284.558 81.6855 287.252C81.6533 287.276 81.6209 287.3 81.5882 287.324C79.448 288.916 76.3633 290.782 73.8198 292.52C73.19 292.969 72.8778 293.162 72.7177 292.979C72.5627 292.793 72.6757 292.176 73.1618 291.449C74.6013 289.347 76.372 288.4 76.9662 287.098C77.7172 285.516 78.2883 284.511 79.3401 283.737C80.001 283.254 80.8618 282.857 82.113 282.519C85.3155 281.69 86.0437 279.496 87.9606 279.007C88.8667 278.793 89.4087 278.917 90.7005 278.729C92.1878 278.497 94.8596 277.955 99.6949 277.481C101.254 277.307 102.632 277.159 103.887 276.99C109.683 276.465 113.115 277.226 115.73 277.407C116.67 277.512 117.529 277.669 118.314 277.855C122.265 278.426 127.89 283.776 131.096 287.308C131.569 287.766 132.114 288.237 132.706 288.756C133.556 289.508 134.758 290.665 135.741 292.357C140.113 301.464 134.417 309.759 133.286 313.473C131.342 318.089 130.301 317.452 127.427 320.322Z" fill="#53081B"/>
<path d="M51.5048 359.534C49.5292 357.701 47.3054 357.53 44.7696 354.26C43.7006 353.018 42.6953 351.58 42.18 349.665C41.2909 346.262 41.7881 344.709 41.4875 342.206C41.3347 341.047 41.1474 339.689 41.0198 337.931C40.7879 334.396 41.8138 331.342 42.5428 328.973C43.1266 327.136 43.5952 325.607 43.5945 324.543C43.6041 322.107 45.5271 322.4 46.0396 319.094C46.5629 315.789 47.4016 313.924 48.891 311.354C50.0512 309.342 52.3411 303.881 53.7787 300.073C53.8056 299.998 53.9315 299.816 53.98 299.753C54.6617 298.886 55.1773 298.073 55.4661 297.426C56.2926 295.612 57.6883 294.086 59.2378 292.707C59.2468 292.694 59.2787 292.659 59.2885 292.646C60.3878 291.788 61.4508 291.414 62.2083 291.005C62.8332 290.682 63.3604 290.487 63.7835 290.37C63.9608 290.322 64.1013 290.378 64.1702 290.481C64.1702 290.481 64.1703 290.481 64.1703 290.481C64.256 290.609 64.2353 290.805 64.0607 290.948C63.2651 291.629 61.8711 292.765 61.176 294.332L61.2241 294.275C61.2175 294.293 61.2108 294.311 61.2041 294.329C59.9784 297.699 58.9301 297.575 56.1506 301.647L56.4262 301.209C56.418 301.236 56.4098 301.263 56.4017 301.29C55.0603 305.903 55.1458 308.969 52.7499 314.154C50.3997 319.393 52.7781 321.437 49.1028 328.734C48.8009 329.34 48.5456 329.907 48.3328 330.438C46.472 335.206 47.8116 337.398 49.2398 340.227C49.6291 341.072 50.0263 342.029 50.4377 343.155C51.2928 345.497 52.1315 348.06 53.0515 350.558C52.9475 350.466 53.104 350.837 53.3322 351.155C53.5628 351.49 53.8811 351.861 54.2316 352.214C54.9386 352.925 55.7872 353.58 56.6501 354.118C58.3849 355.201 60.1904 355.817 61.5429 355.996C61.6932 356.016 61.8468 356.035 62.0039 356.052C65.5488 356.451 69.3783 356.975 70.7349 355.543C72.4352 354.273 72.8651 353.95 73.71 352.811C74.2404 352.077 74.6988 351.101 75.0679 349.991C76.9588 344.276 78.5925 337.673 80.6062 332.094C81.3501 329.956 82.1049 327.704 82.1498 325.61C82.1855 321.199 82.8179 317.177 82.6191 314.188C82.4925 312.473 82.5433 311.074 82.5542 309.985C82.6082 306.964 82.3944 305.444 81.4226 304.093C80.7314 303.179 79.8733 302.232 78.5914 301.007C76.6221 299.143 74.2046 296.338 72.1678 293.875C71.0921 292.707 71.6171 292.338 73.1814 293.132C75.3776 294.334 76.5938 295.925 77.9641 296.315C80.6839 297.136 81.8661 297.597 83.3303 300.595C83.5942 301.149 83.8812 301.609 84.1816 302.004C85.8248 304.303 87.1273 305.654 87.2926 307.37C87.3914 308.905 86.6637 309.533 87.2791 313.39C87.5488 314.805 87.7733 316.547 88.0132 318.68C88.2977 321.237 88.4816 323.346 88.7723 325.073C89.3667 331.64 87.9387 334.705 87.5224 337.3C86.7734 340.705 83.8378 347.034 82.2856 352.414C82.2268 352.615 82.1696 352.807 82.111 353C81.7191 354.272 81.1254 355.849 80.0237 357.553C79.026 359.233 76.8803 361.085 75.7908 361.879C73.2157 364.147 69.1008 364.77 66.6788 364.592C64.1214 364.483 62.2488 364.202 60.826 364.147C60.6074 364.133 60.3998 364.119 60.2035 364.106C54.7071 363.485 54.9332 362.158 51.5048 359.534Z" fill="#53081B"/>
<path d="M3.67325 301.564C3.74054 301.293 3.77405 301.028 3.77833 300.767C3.86845 297.145 3.21016 293.927 4.20196 290.58C4.53291 289.616 5.01237 288.796 5.56048 288.11C10.2726 283.321 11.6733 284.998 16.2962 281.837C17.5124 281.083 18.7805 280.462 20.0093 279.926C23.5822 278.378 26.8423 277.635 28.2625 276.555C29.1897 275.857 29.8829 275.896 30.6754 275.942C31.6054 275.967 32.6133 276.015 34.2884 275.294C36.9167 274.194 38.8959 273.955 41.1804 274.106C41.6634 274.152 42.1748 274.202 42.7315 274.257C44.4479 274.432 48.6053 274.192 52.2474 274.702C52.3117 274.705 52.4884 274.756 52.5497 274.776C54.7388 275.659 56.7513 276.514 58.0747 276.92C60.3221 277.527 62.4964 279.846 63.156 281.956C63.5496 282.893 63.7561 283.914 63.8781 284.619C64.0101 285.33 64.0148 285.893 63.9821 286.335C63.9668 286.518 63.8649 286.63 63.7449 286.659C63.7448 286.659 63.7447 286.659 63.7447 286.659C63.5948 286.695 63.4189 286.61 63.3446 286.399C63.0123 285.498 62.4867 284.163 61.2659 283.183C61.1097 283.041 60.955 282.909 60.7965 282.788C58.12 281.135 58.4785 280.117 54.0326 278.488C53.1013 278.187 52.2215 277.968 51.3698 277.781L51.9009 277.911C48.6423 278.083 46.5474 278.901 41.7365 278.924C41.7038 278.924 41.6711 278.923 41.6386 278.923C37.716 278.898 36.2976 280.765 33.1064 282.076C31.8345 282.624 30.2744 283.098 28.2237 283.471C25.6292 283.944 23.9499 284.642 22.6611 285.481C20.009 287.271 18.49 289.481 15.1809 292.306C14.2581 293.11 13.4829 294.12 13.4855 294.117C12.3798 296.703 11.3568 299.132 11.1635 300.66C10.8415 305.334 9.46272 308.514 9.39954 310.328C9.34158 311.061 9.34795 311.753 9.44551 312.321C9.94445 315.608 10.9345 317.803 13.4417 318.742C14.3285 319.07 15.1966 319.406 16.0717 319.759C18.5931 320.774 21.4626 321.696 24.3391 322.532C27.1603 323.356 30.3705 324.137 31.2812 323.777C32.6339 323.464 33.8768 323.095 35.0708 322.657C36.3534 322.189 37.6998 321.483 39.0269 320.51C42.4474 317.942 45.794 316.093 47.8514 313.775C49.5678 311.849 51.1355 310.273 52.2678 309.143C53.8103 307.612 54.7981 306.579 55.6054 305.539C56.5497 304.285 57.2044 302.831 58.0887 300.343C58.9915 297.781 60.5594 294.389 62.3479 291.651C63.2391 290.267 63.6467 290.78 63.3526 292.405C62.9112 294.779 61.9535 296.504 62.127 297.9C62.4545 300.691 62.5412 301.909 60.4369 304.474C59.5051 305.587 59.1381 306.585 58.7247 307.662C58.3099 308.864 58.1571 309.952 57.4236 310.72C56.3006 311.911 55.39 311.521 51.9142 316.762C51.4089 317.532 50.8031 318.359 50.0872 319.227C47.5074 322.275 45.2104 324.097 43.7349 325.711C40.5628 328.948 37.3878 330.423 35.0778 331.296C34.5651 331.488 33.969 331.668 33.3124 331.825C26.3842 332.995 21.7646 329.208 16.8556 328.192C15.217 327.744 13.1579 327.09 10.8873 326.355C8.08717 325.523 5.11138 323.19 3.65372 320.469C2.13518 317.776 1.69651 315.159 1.39026 313.199C1.17346 311.617 1.2211 310.371 1.22841 309.436C1.43404 304.143 2.79688 304.823 3.67325 301.564Z" fill="#53081B"/>
<path d="M22.094 240.641C20.5174 243.92 22.7577 247.652 22.1652 251.284C22.1061 251.637 22.0828 251.985 21.9875 251.811C22.05 255.013 21.1938 256.254 21.762 259.129C21.8982 259.757 22.0436 260.379 22.2486 261.026C22.8195 262.85 23.3589 264.61 23.96 266.318C24.4416 267.871 25.5554 269.168 26.8394 270.202C26.9641 270.278 27.1266 270.347 27.2985 270.386C28.7372 270.73 28.5516 271.971 30.8153 273.466C31.1625 273.717 31.4484 273.903 31.8101 274.058C34.5212 275.132 36.4435 276.061 38.9243 277.696C40.0392 278.409 42.2227 279.472 44.6862 280.462C47.6204 281.715 50.923 282.02 52.996 281.782C53.1027 281.773 53.2035 281.763 53.3012 281.752C55.2985 281.522 57.2264 282.166 58.7474 282.481L58.7099 282.482C60.6401 282.785 61.6085 283.56 62.5985 283.951C62.6273 283.964 62.6558 283.976 62.6842 283.989L62.6462 283.979C62.9428 284.099 63.0782 284.148 63.1404 284.175C63.2322 284.204 63.4138 284.064 63.5429 283.926C63.6613 283.802 63.8044 283.76 63.922 283.8C63.9221 283.8 63.9221 283.8 63.9222 283.8C64.0657 283.851 64.175 284.028 64.0757 284.283C63.9809 284.502 63.8481 284.82 63.4564 285.019C63.0592 285.203 62.6914 285.146 62.3877 285.128C62.3815 285.127 62.3628 285.123 62.3568 285.12C61.4363 285.01 60.2264 284.903 59.1669 285.148C59.0292 285.185 58.911 285.226 58.8357 285.269C58.8284 285.269 58.8064 285.27 58.799 285.27C55.8994 285.835 55.0922 285.017 52.7018 284.781C52.0166 284.709 51.1216 284.7 49.9584 284.684C47.5378 284.648 45.4759 284.47 43.4578 284.045C41.1408 283.565 38.829 282.927 35.8678 281.378C32.7384 279.686 30.3855 279.693 27.6254 278.289C26.7446 277.877 24.9413 277.654 22.2462 274.876C21.9421 274.471 21.5418 273.961 21.1257 273.351C19.9616 271.68 19.0586 270.057 18.4725 268.623C17.211 265.615 15.7128 263.524 14.4399 260.902C13.7494 259.421 13.1771 257.684 12.7557 255.588C12.6111 254.878 12.4837 254.164 12.3648 253.533C11.996 245.186 14.1482 240.555 16.4803 235.078C17.5276 232.978 18.7422 231.139 19.6432 229.828C19.7983 229.598 19.9573 229.37 20.1188 229.142C21.1939 227.697 22.1592 225.833 24.681 223.683C26.5052 222.362 28.2676 220.187 32.9253 219.494C33.9459 219.438 34.2953 219.507 34.8275 219.549C35.3186 219.597 35.7859 219.66 36.2524 219.733C37.1709 219.877 38.0765 220.061 38.9793 220.282C42.6407 221.299 46.6707 221.82 51.1849 225.175C53.3798 226.945 55.5308 229.271 56.8985 232.12C57.6039 233.597 58.3228 235.099 58.9723 236.628C59.4255 237.697 59.9178 238.829 60.4306 240.09C61.3314 242.508 62.8688 245.009 63.9431 248.494C65.1754 252.412 66.7747 257.241 67.0043 259.959C67.0433 260.254 67.0755 260.527 67.1065 260.799C67.4134 263.677 67.5973 265.318 67.7255 267.423C67.7847 268.584 67.8574 269.86 67.9428 271.575C68.0792 274.453 67.6775 278.404 66.4822 281.639C65.8096 283.261 65.3866 282.719 65.3433 281.101C65.2455 278.671 65.612 276.689 65.0069 275.404C63.7734 272.844 63.3176 271.799 64.0976 268.758C64.2042 268.335 64.2532 267.929 64.2587 267.577C64.2638 265.521 62.6691 264.522 62.533 263C62.4896 262.573 62.5127 262.23 62.536 261.84C62.5466 260.67 63.0018 258.973 59.5611 252.843C59.1483 252.09 58.733 251.332 58.3509 250.435C57.1508 248.167 55.1641 245.637 53.8955 243.379C52.4567 240.98 51.2332 239.005 50.2989 237.403C50.0361 236.956 49.757 236.424 49.4667 235.818C48.8665 234.514 47.8152 232.786 46.0815 231.149C45.064 230.091 42.7363 229.053 40.6629 228.621C39.6914 228.411 38.5081 228.166 37.1973 227.954C36.5422 227.849 35.8627 227.752 35.1723 227.675C34.8352 227.638 34.4838 227.604 34.1678 227.583C34.0086 227.572 33.8534 227.564 33.7288 227.561C33.6177 227.556 33.4522 227.567 33.6209 227.558C33.3122 227.496 31.2759 228.693 29.6355 230.102C28.736 230.843 27.4982 232.693 26.6488 234.053C26.5354 234.24 26.4358 234.416 26.349 234.581C25.294 236.669 24.7469 237.339 23.8754 238.213C23.3558 238.706 22.7407 239.35 22.094 240.641Z" fill="#53081B"/>
<path d="M768.36 72.9835C767.833 77.3601 770.586 80.6174 769.36 85.8045C769.184 86.5221 768.991 87.1564 768.794 87.714C767.245 91.9187 765.601 92.9138 763.127 97.8904C760.073 103.665 754.828 108.051 753.342 110.531C751.951 112.762 750.536 112.32 748.103 114.394C747.802 114.638 747.483 114.924 747.14 115.261C744.127 118.199 741.561 119.632 737.814 120.863C737.443 120.983 737.003 121.132 736.503 121.299C733.485 122.096 728.658 125.538 724.437 127.653C722.861 128.431 721.41 128.896 720.4 129.279C717.417 130.393 714.239 129.995 711.817 129.77L711.972 129.75C710.993 129.747 709.862 129.954 708.933 130.059C708.84 130.07 708.747 130.08 708.657 130.087C707.834 130.154 707.218 130.048 706.825 130.019C706.656 130.005 706.606 129.927 706.469 129.898C706.469 129.898 706.469 129.897 706.469 129.897C706.397 129.873 706.363 129.77 706.453 129.655C706.54 129.543 706.692 129.461 706.852 129.423C707.393 129.305 707.937 129.237 708.517 129.052C709.4 128.783 710.341 128.242 711.717 127.729C711.745 127.725 711.83 127.711 711.858 127.71C712.144 127.635 712.436 127.558 712.732 127.478C717.226 126.135 717.984 127.701 723.03 125.411C723.094 125.375 723.157 125.339 723.22 125.303C727.218 122.961 729.149 119.998 734.625 117.595C735.462 117.246 736.35 116.874 737.316 116.454C740.909 114.842 742.086 112.901 744.11 110.727C745.323 109.315 747.087 107.442 750.238 104.827C757.464 98.4121 755.948 95.8252 758.237 88.8028C758.36 88.2851 758.465 87.7725 758.54 87.2865C759.121 83.6615 759.919 79.7788 760.295 76.3251C760.482 74.6066 760.556 72.986 760.432 71.7177C760.367 70.4437 759.784 69.6161 760.067 69.859C759.565 69.5372 759.075 69.2614 758.613 69.0347C755.34 67.4127 749.383 65.3926 745.671 65.5185C744.053 65.6778 742.355 65.9935 740.618 66.4423C738.404 67.0123 736.069 68.01 733.816 69.3005C729.512 71.6791 725.02 73.6848 723.79 75.4118C722.487 77.0698 721.191 78.7498 719.875 80.3709C716.162 85.0045 710.924 91.8854 709.509 96.2918C709.003 99.2706 707.989 101.552 707.46 103.175C706.976 104.576 706.709 105.654 706.62 106.596C706.383 109.491 705.72 111.324 706.037 114.835C706.128 115.529 706.261 116.257 706.502 116.968C707.325 119.326 707.986 122.104 708.839 124.434C709.142 125.209 709.275 125.562 709.019 125.656C708.767 125.746 708.117 125.452 707.49 124.738C705.701 122.623 705.308 120.515 704.132 119.527C703.592 119.058 703.133 118.645 702.743 118.245C701.366 116.569 701.126 114.753 702.061 112.048C702.966 109.534 702.316 108.158 701.867 107.067C701.694 106.417 701.63 105.775 701.769 105.124C702.129 103.205 703.6 102.575 704.17 96.466C704.246 95.0777 704.592 93.9172 705.005 92.6128C708.985 82.1361 712.716 77.4093 714.964 73.7896C715.391 73.1492 715.941 72.412 716.602 71.5932C720.34 67.0477 726.296 65.5485 730.016 63.4434C731.344 62.7222 732.673 62.0504 733.963 61.4283C736.69 60.1096 740.811 58.6078 745.458 58.0695C754.624 57.7952 759.967 61.0583 763.668 62.3767C764.433 62.6931 765.074 63.0081 765.619 63.3153C769.007 65.7285 768.51 67.2544 768.724 68.5144C768.75 69.8084 768.55 71.0409 768.36 72.9835Z" fill="#53081B"/>
<path d="M770.573 163.763C770.416 163.86 770.244 163.972 770.096 164.067C765.766 166.669 763.132 170.069 757.469 171.251C754.692 171.763 753.001 171.643 751.255 171.557C749.156 171.463 747.104 171.321 743.61 171.047C741.161 170.839 738.946 170.215 737.022 169.542C733.613 168.336 731.085 166.945 729.337 166.636C726.598 166.116 727.455 164.423 723.986 163.14C720.527 161.788 718.748 160.503 716.659 158.028C716.364 157.657 715.953 157.191 715.506 156.538C713.269 153.422 709.947 147.197 709.068 144.404C709.015 144.292 708.966 144.179 708.921 144.065C708.895 143.964 708.913 143.671 708.928 143.565C708.939 140.93 710.422 138.172 711.263 136.151L711.256 136.205C711.407 135.775 711.493 135.402 711.495 135.06C711.5 134.456 711.409 133.948 711.349 133.534C711.323 133.36 711.397 133.229 711.515 133.166C711.515 133.166 711.515 133.166 711.515 133.166C711.66 133.088 711.875 133.119 712.009 133.315C712.437 133.926 712.952 134.912 713.055 136.173C713.053 136.182 713.051 136.21 713.049 136.219C713.079 136.817 713.11 137.458 713.166 138.131C713.38 140.8 712.767 141.691 712.248 143.788L712.255 143.315C712.368 144.106 712.575 145.047 713.155 146.192C714.868 149.386 717.124 150.928 719.45 153.839C719.81 154.29 720.496 154.955 721.273 155.675C725.584 159.298 728.599 157.686 735.388 162.29C736.983 163.312 738.388 163.926 739.64 164.276C743.647 165.3 746.429 164.473 750.598 163.552C750.98 163.461 751.394 163.364 751.837 163.263C756.368 162.221 762.407 160.812 765.297 159.104C768.018 157.306 770.747 154.835 772.093 153.216C775.05 149.742 778.98 143.552 777.819 140.517C777.759 140.348 777.689 140.177 777.606 140.003C777.194 139.08 776.15 138.037 774.808 136.63C771.041 132.382 767.413 129.338 762.645 127.996C762.149 127.85 761.662 127.7 761.184 127.546C757.983 126.526 754.39 125.32 750.932 124.827C745.042 124.01 740.017 123.056 736.752 123.32C736.633 123.326 736.517 123.331 736.404 123.337C730.801 123.714 729.324 123.995 724.286 126.173C724.152 126.233 724.017 126.294 723.878 126.356C721.044 127.633 717.19 129.071 713.998 130.514C713.177 130.903 712.798 131.078 712.674 130.888C712.556 130.695 712.853 130.093 713.596 129.433C715.791 127.528 718.039 126.789 719.082 125.611C720.289 124.285 721.178 123.423 722.415 122.8C723.347 122.334 724.493 121.998 726.159 121.781C729.979 121.32 731.42 119.368 733.695 119.12C734.67 119.026 735.229 119.164 736.454 119.16C738.121 119.146 741.195 118.934 747.233 119.035C749.008 119.046 750.589 119.059 752.043 119.04C758.853 119.188 762.656 120.308 765.64 120.775C766.53 120.946 767.337 121.144 768.075 121.356C772.466 122.222 778.125 128.034 781.334 131.896C781.668 132.242 782.035 132.591 782.425 132.954C783.335 133.822 784.741 135.136 785.729 137.208C789.09 146.362 780.941 154.006 778.87 157.418C775.498 161.856 774.594 161.136 770.573 163.763Z" fill="#53081B"/>
<path d="M677.111 193.592C675.144 191.585 672.522 191.334 670.247 187.746C669.429 186.546 668.734 185.173 668.527 183.452C668.129 179.834 669.032 178.387 669.065 175.592C669.072 174.584 669.088 173.407 669.223 171.948C669.598 168.232 671.52 165.132 672.846 162.791C673.776 161.189 674.523 159.848 674.749 158.873C675.31 156.494 677.282 156.886 678.579 153.684C679.889 150.481 681.206 148.708 683.378 146.284C685.08 144.377 688.805 139.135 691.245 135.513C691.29 135.444 691.465 135.28 691.532 135.225C692.471 134.456 693.217 133.726 693.687 133.134C695.044 131.449 696.927 130.063 698.943 128.84C698.956 128.828 698.997 128.798 699.011 128.787C700.416 128.044 701.679 127.771 702.613 127.44C703.381 127.18 704.009 127.035 704.503 126.955C704.71 126.923 704.85 126.986 704.9 127.087C704.9 127.087 704.9 127.087 704.9 127.087C704.961 127.213 704.888 127.396 704.66 127.517C703.611 128.103 701.79 129.061 700.621 130.518L700.686 130.468C700.674 130.484 700.663 130.5 700.651 130.517C698.481 133.665 697.396 133.508 693.392 137.17L693.783 136.779C693.757 136.822 693.732 136.865 693.706 136.909C691.177 141.327 690.552 144.33 686.813 149.259C683.122 154.235 685.149 156.406 679.621 163.311C679.258 163.774 678.94 164.198 678.657 164.599C675.453 169.236 676.381 171.459 677.42 174.279C677.733 175.244 678.036 176.348 678.323 177.68C678.809 179.933 679.257 182.379 679.799 184.782C679.719 184.731 679.854 185.147 680.077 185.506C680.3 185.883 680.612 186.296 680.966 186.692C681.677 187.489 682.556 188.233 683.469 188.857C685.307 190.116 687.298 190.902 688.84 191.212C688.976 191.24 689.116 191.267 689.258 191.293C693.129 192.003 697.562 192.992 699.625 191.625C701.758 190.574 702.368 190.272 703.533 189.258C704.302 188.576 705.041 187.638 705.703 186.553C709.025 181.098 712.301 174.758 715.665 169.437C716.897 167.433 718.144 165.343 718.585 163.316C719.468 159.023 720.962 155.123 721.306 152.145C721.506 150.326 721.862 148.86 722.087 147.732C722.676 144.91 722.671 143.425 721.897 142.089C721.271 141.07 720.466 140.027 719.178 138.62C717.343 136.638 715.167 133.708 713.336 131.162C712.345 129.944 712.99 129.654 714.558 130.558C716.749 131.912 717.813 133.553 719.23 134.056C722.033 135.1 723.23 135.651 724.333 138.659C724.569 139.326 724.863 139.865 725.189 140.327C726.555 142.419 727.66 143.817 727.538 145.453C727.377 147.02 726.453 147.599 726.387 151.706C726.415 153.064 726.329 154.705 726.174 156.68C725.96 159.324 725.71 161.486 725.679 163.261C725.029 169.604 722.799 172.477 721.791 174.963C720.229 178.24 715.681 184.215 712.776 189.366C712.653 189.581 712.537 189.783 712.413 189.995C711.703 191.195 710.703 192.672 709.114 194.21C707.635 195.741 704.908 197.281 703.519 197.951C700.086 199.929 695.463 200.068 692.803 199.673C689.983 199.321 687.919 198.869 686.34 198.681C686.151 198.654 685.97 198.629 685.797 198.604C679.915 197.535 680.419 196.33 677.111 193.592Z" fill="#53081B"/>
<path d="M633.646 131.37C633.682 131.285 633.714 131.2 633.742 131.116C634.82 127.551 634.984 124.607 636.432 121.505C637.319 119.979 638.547 118.876 639.808 118.077C646.031 114.736 647.091 116.284 653.005 113.964C654.091 113.574 655.193 113.244 656.264 112.959C661.129 111.682 665.522 111.385 667.561 110.446C668.183 110.164 668.683 110.057 669.139 110.035C670.669 109.956 671.66 110.669 674.597 110.022C677.351 109.447 679.39 109.413 681.486 109.691C682.289 109.812 683.136 109.954 684.095 110.127C685.923 110.45 690.235 110.759 693.997 111.6C694.058 111.608 694.219 111.665 694.275 111.687C696.684 112.818 698.932 113.925 700.39 114.466C702.749 115.267 704.696 117.6 705.126 119.685C705.417 120.606 705.5 121.601 705.527 122.298C705.566 123.004 705.485 123.558 705.384 123.99C705.34 124.171 705.215 124.275 705.084 124.297C705.084 124.297 705.084 124.297 705.084 124.297C704.92 124.323 704.747 124.231 704.701 124.018C704.486 123.114 704.131 121.787 702.947 120.743C702.794 120.591 702.642 120.447 702.482 120.313C699.779 118.463 700.3 117.52 695.687 115.527C694.541 115.078 693.451 114.742 692.402 114.443L692.904 114.6C689.446 114.426 686.862 114.775 681.902 114.331C681.531 114.293 681.173 114.264 680.825 114.24C676.659 114.019 674.641 115.573 670.212 116.322C668.915 116.569 667.415 116.749 665.621 116.844C661.866 117.04 659.591 117.699 657.694 118.587C654.92 119.921 652.602 121.569 648.459 123.591C646.868 124.349 645.217 125.544 645.29 125.479C643.526 127.837 641.978 130.017 641.531 131.406C640.419 135.707 638.406 138.567 637.969 140.265C637.731 141.039 637.587 141.768 637.596 142.363C637.567 145.635 638.364 147.933 641.39 149.273C642.202 149.626 642.991 149.979 643.784 150.347C646.584 151.641 649.783 152.85 653.058 154.015C656.264 155.142 659.931 156.392 661.463 156.191C662.646 156.102 663.777 155.981 664.873 155.824C666.822 155.549 668.934 154.963 671.065 153.963C675.489 151.859 679.587 150.47 682.298 148.495C684.253 147.083 686.002 145.934 687.319 145.083C689.762 143.512 691.21 142.545 692.504 141.441C693.629 140.459 694.626 139.176 695.982 137.137C697.583 134.718 700.07 131.517 702.61 128.958C703.878 127.663 704.191 128.189 703.496 129.757C702.464 132.048 701.03 133.666 700.872 135.037C700.529 137.778 700.332 138.975 697.4 141.327C696.426 142.09 695.785 142.825 695.132 143.597C694.023 144.954 693.59 146.237 692.409 147.027C690.968 148.002 690.125 147.637 685.738 151.573C684.743 152.478 683.496 153.472 681.99 154.511C678.955 156.576 676.426 157.9 674.595 159.136C669.441 162.42 664.969 163.256 662.013 163.743C661.886 163.762 661.756 163.781 661.622 163.799C654.324 164.417 648.886 159.958 643.117 158.291C641.488 157.74 639.428 156.961 637.189 156.098C634.408 155.08 631.604 152.851 630.343 150.148C629.027 147.471 628.944 144.789 628.962 142.796C629.008 141.097 629.358 139.789 629.574 138.828C630.904 133.716 632.2 134.497 633.646 131.37Z" fill="#53081B"/>
<path d="M664.86 74.7401C662.463 77.8925 663.92 81.9213 662.729 85.2272C662.675 85.3777 662.642 85.4916 662.608 85.377C662.152 88.803 661.024 89.9435 660.972 92.6043C660.978 93.4392 661.003 94.2651 661.169 95.192C661.45 96.7846 661.738 98.3705 662.07 99.9172C662.352 101.501 663.36 102.899 664.588 104.161C664.818 104.389 665.19 104.605 665.565 104.72C667.187 105.229 667.106 106.248 668.689 107.714C669.115 108.14 669.469 108.454 670.131 108.758C673.158 110.073 675.097 111.138 677.624 112.941C678.685 113.686 680.824 114.853 683.276 115.994C686.337 117.5 690.088 118.171 692.571 118.187C692.767 118.194 692.951 118.197 693.123 118.197C695.376 118.193 697.393 118.969 699.068 119.404L699.029 119.402C701.118 119.87 702.1 120.717 703.148 121.192C703.18 121.208 703.211 121.224 703.242 121.24L703.206 121.228C703.515 121.371 703.694 121.439 703.775 121.461C703.879 121.494 704.107 121.374 704.28 121.244C704.438 121.129 704.6 121.096 704.715 121.142C704.715 121.142 704.715 121.142 704.715 121.142C704.855 121.2 704.93 121.382 704.758 121.626C704.603 121.835 704.363 122.139 703.887 122.278C703.417 122.402 703.036 122.315 702.7 122.267C702.694 122.265 702.676 122.26 702.67 122.258C701.651 122.054 700.327 121.828 699.038 121.931C698.845 121.952 698.672 121.978 698.555 122.013C698.548 122.012 698.525 122.012 698.517 122.011C695.159 122.243 694.426 121.371 691.642 120.903C690.912 120.778 689.965 120.689 688.766 120.574C685.907 120.299 683.528 119.919 681.236 119.262C678.845 118.581 676.479 117.744 673.581 116.068C670.117 113.992 667.433 113.976 664.306 112.068C663.384 111.507 661.388 111 659.033 108.098C658.874 107.833 658.686 107.531 658.488 107.196C657.279 105.241 656.323 103.378 655.824 101.738C654.886 98.9142 653.573 96.728 652.749 93.8221C652.372 92.4603 652.147 90.9099 652.096 89.1042C652.068 88.1651 652.079 87.2087 652.077 86.3745C653.379 78.1785 656.717 73.7806 660.401 68.6679C661.937 66.7796 663.588 65.1538 664.841 63.9809C665.123 63.7138 665.413 63.4479 665.706 63.1851C667.237 61.8666 668.758 60.1204 672.013 58.3045C674.366 57.1752 676.945 55.2384 682.095 55.0534C685.199 55.2978 686.504 55.782 688.548 56.351C692.563 57.6961 697.11 58.6145 701.532 62.2907C703.65 64.2157 705.607 66.659 706.591 69.573C707.059 70.976 707.536 72.3981 707.95 73.8331C708.299 75.0497 708.69 76.3431 709.077 77.7807C709.667 80.2894 710.947 82.8962 711.494 86.3763C712.136 90.2662 713.034 94.9278 712.83 97.5858C712.819 98.0162 712.8 98.4195 712.778 98.8047C712.595 101.605 712.526 103.216 712.26 105.38C712.113 106.471 711.945 107.683 711.707 109.263C711.262 112.155 710.016 116.076 708.053 119.234C706.982 120.81 706.661 120.249 706.971 118.626C707.396 116.188 708.195 114.232 707.829 112.906C707.065 110.265 706.809 109.189 708.229 106.2C708.378 105.877 708.488 105.571 708.563 105.292C709.121 103.065 707.468 101.891 707.6 100.291C707.619 99.997 707.664 99.7457 707.72 99.4926C707.897 98.2548 709.027 96.9789 706.065 89.8914C705.804 89.2373 705.548 88.575 705.339 87.8161C704.42 85.3991 702.67 82.7514 701.678 80.4098C700.425 77.71 699.37 75.5335 698.599 73.7807C698.438 73.4197 698.275 73.0075 698.113 72.5493C697.654 71.1986 696.748 69.3327 695.032 67.502C693.937 66.2325 691.331 64.9393 688.927 64.281C687.863 63.9828 686.569 63.6325 685.128 63.3013C684.408 63.1362 683.653 62.9754 682.886 62.834C682.514 62.7655 682.118 62.6981 681.759 62.6461C681.58 62.6201 681.402 62.5967 681.253 62.5807C681.12 62.5643 680.928 62.5567 681.074 62.5634C680.492 62.4878 677.971 63.4807 675.765 64.7096C674.543 65.3665 672.765 67.0433 671.473 68.3073C671.251 68.5289 671.058 68.7356 670.89 68.928C669.338 70.7521 668.602 71.4581 667.572 72.2069C666.837 72.7196 665.957 73.3359 664.86 74.7401Z" fill="#53081B"/>
<path d="M580.07 193.179C580.622 198.936 583.844 203.212 583.804 210.096C583.793 210.998 583.751 211.817 583.69 212.531C583.108 218.061 581.747 219.448 580.19 226.096C578.204 233.752 573.74 239.856 572.623 243.117C571.56 246.065 570.117 245.689 567.977 248.579C567.725 248.899 567.463 249.265 567.184 249.688C564.567 253.63 562.201 255.638 558.503 257.536C558.113 257.732 557.642 257.978 557.106 258.251C553.946 259.582 549.543 264.42 545.494 267.334C544.022 268.381 542.602 269.026 541.614 269.529C538.62 271.04 535.033 270.733 532.299 270.63L532.436 270.603C531.347 270.692 530.196 271.048 529.224 271.245C529.122 271.267 529.019 271.286 528.918 271.303C528.054 271.441 527.36 271.352 526.914 271.36C526.717 271.363 526.646 271.304 526.516 271.274C526.516 271.274 526.516 271.274 526.516 271.274C526.446 271.249 526.394 271.13 526.463 270.991C526.528 270.855 526.669 270.751 526.834 270.697C527.387 270.528 527.972 270.426 528.571 270.171C529.489 269.799 530.414 269.073 531.777 268.399C531.802 268.393 531.876 268.376 531.902 268.373C532.209 268.271 532.523 268.166 532.841 268.058C537.488 266.299 538.671 268.144 543.777 264.882C543.813 264.854 543.849 264.825 543.885 264.796C547.839 261.521 549.34 257.623 554.607 254.249C555.473 253.718 556.388 253.145 557.376 252.49C560.883 250.097 561.83 247.583 563.57 244.679C564.652 242.712 566.155 240.126 568.902 236.378C575.003 227.316 573.245 224.342 574.234 214.517C574.256 213.762 574.256 213.004 574.222 212.279C574.008 207.391 573.911 202.146 573.439 197.46C573.203 195.127 572.865 192.923 572.376 191.157C571.944 189.39 571.064 188.143 571.15 188.278C570.537 187.882 569.948 187.542 569.401 187.259C565.328 185.158 558.422 182.573 553.936 182.927C552.098 183.229 550.219 183.77 548.345 184.508C546.053 185.408 543.738 186.839 541.577 188.639C537.515 191.938 532.991 194.678 531.809 197.485C530.758 199.813 529.734 202.168 528.689 204.448C525.825 210.858 521.843 220.125 521.434 226.377C521.626 230.279 521.108 233.352 520.95 235.547C520.781 237.465 520.77 238.945 520.92 240.232C521.387 244.03 521.106 246.469 522.227 251.193C522.485 252.151 522.807 253.164 523.262 254.153C524.72 257.268 526.145 260.925 527.732 263.942C528.287 264.952 528.548 265.378 528.313 265.474C528.083 265.565 527.333 265.17 526.502 264.226C524.11 261.431 523.137 258.656 521.731 257.31C521.104 256.692 520.566 256.146 520.094 255.622C518.323 253.418 517.684 251.129 517.956 247.508C518.242 244.193 517.366 242.346 516.68 240.843C516.363 239.991 516.158 239.15 516.148 238.288C516.059 235.772 517.357 235.021 516.589 226.678C516.364 224.945 516.467 223.423 516.621 221.715C518.573 207.865 521.535 201.443 523.137 196.605C523.467 195.708 523.911 194.659 524.46 193.488C527.228 187.685 533.227 185.335 536.867 182.329C538.067 181.372 539.281 180.477 540.469 179.65C543.118 177.802 547.236 175.629 552.159 174.734C561.688 174.024 568.435 178.125 572.68 179.797C573.533 180.182 574.266 180.563 574.904 180.934C578.924 183.853 578.761 185.791 579.305 187.387C579.658 189.035 579.778 190.613 580.07 193.179Z" fill="#53081B"/>
<path d="M605.273 313.379C605.125 313.515 604.919 313.728 604.766 313.878C600.907 317.457 598.626 321.564 592.863 323.41C589.9 324.269 588.034 324.254 586.077 324.295C583.891 324.337 581.667 324.325 577.909 324.084C575.16 323.887 572.552 323.146 570.247 322.331C566.249 320.9 563.129 319.21 561.171 318.781C558.075 318.056 558.461 316.15 554.354 314.468C550.25 312.695 547.958 311.089 545.024 307.971C544.616 307.516 544.081 306.954 543.468 306.165C540.198 302.158 534.976 293.882 533.488 290.138C533.426 290.021 533.366 289.903 533.308 289.785C533.267 289.676 533.224 289.358 533.218 289.243C532.668 285.71 533.497 281.938 533.852 279.17L533.856 279.229C533.898 278.636 533.885 278.117 533.79 277.648C533.625 276.824 533.375 276.154 533.185 275.616C533.104 275.39 533.135 275.229 533.23 275.156C533.23 275.156 533.23 275.156 533.23 275.156C533.347 275.067 533.568 275.121 533.757 275.38C534.365 276.193 535.133 277.494 535.497 279.155C535.498 279.165 535.501 279.196 535.501 279.206C535.652 279.995 535.809 280.841 535.994 281.731C536.73 285.317 536.326 286.522 536.279 289.414L536.193 288.897C536.512 289.939 536.961 291.182 537.824 292.69C540.431 297.059 543.215 299.207 546.545 303.101C547.096 303.739 548.015 304.587 549.055 305.497C554.819 310.123 557.525 308.435 566.361 314.064C568.382 315.283 570.084 316.026 571.553 316.46C576.299 317.728 579.106 316.913 583.791 315.553C584.243 315.406 584.732 315.247 585.254 315.077C590.102 313.487 596.362 311.309 599.343 308.575C601.979 305.862 604.331 302.406 605.462 300.138C607.887 295.276 611.101 286.804 608.742 281.9C608.64 281.693 608.53 281.487 608.41 281.28C607.652 279.925 606.176 278.509 604.332 276.64C599.225 271.13 594.318 266.851 588.5 265.276C587.937 265.113 587.382 264.944 586.833 264.771C583.029 263.587 578.719 262.161 574.688 261.703C568.054 260.951 562.203 259.964 558.625 260.544C558.466 260.563 558.313 260.581 558.165 260.599C552.07 261.484 550.529 261.955 545.463 265.02C545.348 265.093 545.232 265.167 545.113 265.241C542.275 267.05 538.356 269.208 535.263 271.424C534.478 272.016 534.144 272.292 534 272.066C533.861 271.837 534.059 271.069 534.724 270.186C536.692 267.638 538.95 266.51 539.871 265.025C540.965 263.327 541.776 262.233 543.019 261.377C543.924 260.76 545.067 260.261 546.768 259.846C550.77 258.915 551.977 256.625 554.382 256.159C555.44 255.972 556.079 256.087 557.47 255.98C559.279 255.836 562.55 255.397 569.133 255.396C571.103 255.37 572.869 255.352 574.488 255.293C581.862 255.305 586.334 256.692 589.741 257.24C590.77 257.443 591.712 257.688 592.579 257.955C597.456 258.975 604.873 266.154 609.36 271.282C609.859 271.788 610.395 272.295 610.956 272.819C612.138 273.941 613.871 275.588 615.316 278.103C620.903 289.492 614.072 300.008 612.523 304.558C609.864 310.451 608.876 309.692 605.273 313.379Z" fill="#53081B"/>
<path d="M510.234 356.411C507.508 353.912 504.602 353.493 501.414 348.984C500.346 347.471 499.356 345.749 498.697 343.62C497.242 338.784 497.73 336.919 496.915 333.048C496.661 331.833 496.389 330.418 496.182 328.686C495.623 323.74 496.95 319.48 497.804 316.293C498.379 314.232 498.832 312.503 498.888 311.265C499.039 308.127 500.934 308.448 501.651 304.184C502.383 299.92 503.344 297.507 505.016 294.168C506.327 291.538 509.063 284.391 510.896 279.529C510.925 279.451 511.053 279.263 511.104 279.2C511.958 278.168 512.617 277.199 513.019 276.426C514.193 274.21 515.892 272.253 517.739 270.54C517.749 270.527 517.781 270.492 517.792 270.48C519.1 269.446 520.393 269.003 521.329 268.52C522.101 268.139 522.745 267.906 523.255 267.763C523.469 267.704 523.624 267.762 523.689 267.872C523.689 267.873 523.689 267.873 523.689 267.873C523.77 268.011 523.716 268.228 523.491 268.391C522.458 269.184 520.669 270.433 519.606 272.355L519.656 272.298C519.646 272.318 519.637 272.339 519.627 272.36C517.813 276.479 516.771 276.446 513.188 281.304L513.47 280.858C513.448 280.925 513.426 280.994 513.404 281.064C511.595 286.985 511.44 290.924 508.668 297.664C505.962 304.464 508.174 307.068 504.11 316.576C503.885 317.106 503.674 317.652 503.498 318.125C501.212 324.526 502.439 327.39 504.202 331.329C504.793 332.681 505.422 334.234 506.12 336.134C507.201 339.07 508.329 342.245 509.563 345.36C509.596 345.732 510.672 347.235 511.715 348.241C512.799 349.326 514.04 350.306 515.28 351.121C517.772 352.763 520.278 353.745 522.127 354.136C522.273 354.167 522.421 354.197 522.571 354.226C526.981 355.034 532.362 356.495 534.843 354.318C536.872 352.922 537.662 352.346 538.709 350.894C539.425 349.893 540.029 348.563 540.508 347.052C542.822 339.697 544.979 331.216 547.255 323.952C548.065 321.245 548.873 318.389 548.786 315.59C548.6 309.952 549.191 304.697 548.733 300.661C548.452 298.198 548.446 296.183 548.371 294.638C548.224 290.946 547.776 288.966 546.58 287.225C545.6 285.852 544.435 284.461 542.612 282.558C540.109 279.968 536.921 276.179 534.152 272.983C532.7 271.46 533.301 271.163 535.207 272.331C537.9 274.091 539.522 276.185 541.112 276.889C544.268 278.346 545.635 279.084 547.719 282.896C548.209 283.809 548.712 284.541 549.219 285.166C551.121 287.65 552.476 289.409 552.782 291.49C553.047 293.567 552.297 294.315 553.292 300.004C553.654 301.739 553.953 303.839 554.24 306.369C554.638 309.932 554.87 312.869 555.266 315.296C556.07 323.382 554.335 327.275 553.816 330.558C552.879 334.924 549.519 343.048 547.541 349.958C547.454 350.256 547.373 350.532 547.283 350.827C546.796 352.397 546.065 354.324 544.737 356.315C543.51 358.303 541.057 360.26 539.643 361.217C536.454 363.807 531.694 364.061 528.711 363.62C525.583 363.229 523.178 362.675 521.392 362.444C521.208 362.416 521.03 362.389 520.859 362.363C514.323 361.08 514.535 359.72 510.234 356.411Z" fill="#53081B"/>
<path d="M446.231 275.53C446.251 275.378 446.265 275.225 446.273 275.073C446.49 270.437 446.218 266.604 447.194 262.446C447.732 260.673 448.671 259.319 449.736 258.277C455.472 253.606 456.947 255.264 462.913 251.998C464.082 251.413 465.282 250.908 466.458 250.462C471.436 248.596 476.118 247.886 478.164 246.672C478.872 246.259 479.452 246.102 480.002 246.054C481.554 245.913 482.79 246.509 485.764 245.628C488.729 244.792 490.995 244.666 493.429 244.914C494.32 245.019 495.259 245.139 496.312 245.285C498.434 245.57 503.322 245.731 507.733 246.711C507.791 246.719 507.952 246.778 508.008 246.8C510.947 248.216 513.68 249.63 515.381 250.359C518.138 251.457 520.846 254.371 521.9 257.09C522.478 258.289 522.834 259.578 523.054 260.506C523.284 261.441 523.357 262.181 523.378 262.758C523.384 262.998 523.296 263.135 523.181 263.163C523.181 263.163 523.181 263.163 523.18 263.163C523.036 263.195 522.852 263.067 522.752 262.781C522.309 261.564 521.637 259.765 520.118 258.305C519.921 258.098 519.725 257.9 519.524 257.712C516.146 255.051 516.319 253.956 510.705 251.305C509.346 250.72 508.078 250.275 506.862 249.877L507.356 250.038C503.409 249.804 500.499 250.288 494.844 249.994C494.475 249.968 494.12 249.949 493.773 249.935C488.985 249.819 487.052 251.654 482.292 252.911C480.878 253.323 479.213 253.674 477.177 253.954C473.197 254.502 470.837 255.426 468.933 256.579C466.034 258.395 463.785 260.473 459.456 263.467C457.85 264.583 456.264 266.187 456.121 266.592C454.764 269.875 453.553 272.996 453.445 275.211C453.318 280.864 451.843 284.813 451.75 287.213C451.668 288.29 451.674 289.337 451.835 290.249C452.546 294.73 454.199 298.426 458.263 300.19C459.275 300.639 460.266 301.089 461.26 301.555C467.739 304.365 477.848 308.987 482.657 308.811C484.047 308.62 485.37 308.37 486.638 308.051C488.74 307.532 490.942 306.577 493.033 305.102C497.309 302.084 501.564 299.933 504.11 297.025C505.938 294.977 507.607 293.294 508.858 292.047C511.086 289.838 512.417 288.457 513.556 286.941C514.594 285.515 515.4 283.744 516.46 280.904C517.682 277.607 519.618 273.184 521.655 269.584C522.667 267.762 523.035 268.417 522.599 270.523C521.945 273.601 520.803 275.847 520.836 277.627C520.873 281.184 520.852 282.736 518.354 286.052C517.488 287.169 516.954 288.208 516.419 289.249C515.538 291.016 515.251 292.589 514.187 293.69C512.849 295.094 511.95 294.727 507.906 300.322C507.07 301.503 505.995 302.798 504.657 304.156C501.75 307.059 499.176 308.938 497.358 310.707C492.644 315.056 488.124 316.319 485.043 317.06C484.838 317.107 484.623 317.152 484.398 317.194C476.938 318.22 469.717 312.73 463.022 310.636C461.062 309.925 458.553 308.927 455.819 307.826C452.592 306.593 449.122 303.81 447.178 300.385C445.18 296.993 444.47 293.536 444.031 290.922C443.7 288.792 443.769 287.109 443.789 285.86C444.101 279.093 445.513 279.92 446.231 275.53Z" fill="#53081B"/>
<path d="M465.903 198.436C464.176 202.805 466.181 207.977 465.825 212.563C465.815 212.716 465.813 212.837 465.778 212.774C466.245 217.358 465.49 218.933 466.104 222.41C466.332 223.57 466.576 224.748 467.03 226.103C467.715 228.157 468.437 230.199 469.193 232.177C470.001 234.414 471.581 236.281 473.233 237.941C473.641 238.351 474.211 238.706 474.723 238.901C476.639 239.631 476.97 240.76 478.86 242.481C479.456 243.059 479.985 243.528 480.903 243.98C484.648 245.738 487.048 247.032 490.335 249.225C491.698 250.12 494.314 251.529 497.267 252.923C501.044 254.802 505.417 255.605 508.169 255.634C508.409 255.644 508.631 255.651 508.838 255.653C511.282 255.667 513.699 256.587 515.705 257.05L515.67 257.048C517.995 257.543 519.351 258.571 520.625 259.143C520.665 259.162 520.704 259.181 520.742 259.201L520.707 259.189C521.088 259.359 521.339 259.448 521.471 259.446C521.624 259.455 521.831 259.27 521.981 259.082C522.118 258.914 522.263 258.854 522.378 258.902C522.378 258.902 522.378 258.902 522.379 258.902C522.518 258.962 522.616 259.19 522.486 259.511C522.367 259.786 522.173 260.177 521.712 260.352C521.255 260.51 520.834 260.409 520.456 260.347C520.45 260.345 520.433 260.34 520.428 260.338C519.255 260.069 517.764 259.766 516.33 259.857C516.106 259.877 515.905 259.905 515.76 259.946C515.753 259.946 515.732 259.946 515.725 259.945C512.152 260.227 511.112 259.191 507.869 258.643C507.037 258.5 505.994 258.403 504.687 258.271C501.451 257.944 498.754 257.448 496.067 256.595C493.317 255.72 490.555 254.672 486.971 252.642C482.533 250.04 479.665 249.995 475.731 247.453C474.494 246.632 472.157 245.95 469.01 242.422C468.806 242.143 468.576 241.837 468.335 241.506C466.403 238.958 464.828 236.552 463.855 234.395C462.136 230.772 460.324 227.975 458.8 224.029C458.134 222.324 457.568 220.38 457.097 218.11C456.82 216.784 456.584 215.426 456.353 214.213C455.776 203.888 458.209 197.656 460.87 190.996C462.033 188.512 463.378 186.383 464.441 184.839C464.696 184.464 464.961 184.089 465.233 183.718C466.605 181.926 467.887 179.593 470.867 177.245C473.176 175.679 475.589 173.147 480.78 172.805C483.993 173.019 485.642 173.604 487.97 174.265C492.703 175.864 497.964 177.028 503.51 181.582C506.271 184.029 508.954 187.117 510.721 190.822C511.582 192.633 512.459 194.457 513.282 196.289C514.015 197.925 514.82 199.668 515.648 201.589C517.01 204.932 519.129 208.347 520.6 212.783C522.388 217.956 524.562 223.878 525.079 227.372C525.196 227.995 525.293 228.571 525.381 229.121C525.944 232.797 526.307 234.914 526.558 237.798C526.667 239.219 526.772 240.805 526.881 242.857C527.076 246.71 526.726 251.965 525.507 256.253C524.8 258.395 524.412 257.704 524.403 255.528C524.341 252.272 524.68 249.634 524.081 247.896C522.851 244.433 522.406 243.011 523.054 238.948C523.114 238.544 523.146 238.165 523.154 237.816C523.182 234.702 521.291 233.137 520.988 230.97C520.936 230.632 520.91 230.337 520.894 230.045C520.677 228.344 521.593 226.76 516.502 217.105C516.088 216.295 515.68 215.476 515.303 214.563C513.649 211.177 511.103 207.77 509.462 204.719C507.371 201.053 505.658 198.168 504.372 195.836C504.131 195.403 503.876 194.915 503.61 194.376C502.706 192.5 501.107 189.952 498.656 187.529C496.899 185.716 493.597 184.087 490.695 183.225C488.344 182.504 483.956 181.333 481.348 181.107C480.263 181.062 477.732 182.547 475.567 184.226C474.2 185.265 472.669 187.535 471.526 189.227C471.314 189.549 471.13 189.849 470.974 190.127C469.634 192.586 469.021 193.648 468.157 194.716C467.5 195.517 466.734 196.428 465.903 198.436Z" fill="#53081B"/>
</svg>
