<svg width="200" height="200" viewBox="0 0 200 200" fill="none" xmlns="http://www.w3.org/2000/svg">
<circle cx="100" cy="100" r="98.5" fill="#F9F4EA" stroke="#53081B" stroke-width="3"/>
<path d="M57.24 109C56.4933 109 56.12 108.733 56.12 108.2C56.12 107.613 56.6533 107.24 57.72 107.08L59.32 106.84C60.4933 106.68 61.2933 106.413 61.72 106.04C62.2 105.613 62.5467 104.84 62.76 103.72L73.64 56.68C73.9067 55.56 73.9067 54.8133 73.64 54.44C73.3733 54.0667 72.7067 53.7733 71.64 53.56L70.04 53.24C69.3467 53.08 69 52.7867 69 52.36C69 51.72 69.48 51.4 70.44 51.4H84.84C85.5867 51.4 85.96 51.6933 85.96 52.28C85.96 52.8667 85.48 53.2133 84.52 53.32L82.6 53.56C81.4267 53.72 80.6267 54.0133 80.2 54.44C79.7733 54.8667 79.4267 55.64 79.16 56.76L74.52 76.84C74.36 77.5867 74.6533 77.96 75.4 77.96H91.24C91.9867 77.96 92.44 77.5867 92.6 76.84L97.24 56.76C97.5067 55.64 97.5067 54.8667 97.24 54.44C96.9733 54.0133 96.3067 53.72 95.24 53.56L93.48 53.32C92.7333 53.2667 92.36 52.9467 92.36 52.36C92.36 51.72 92.8667 51.4 93.88 51.4H108.28C109.027 51.4 109.4 51.6667 109.4 52.2C109.4 52.7867 108.867 53.16 107.8 53.32L106.2 53.56C105.027 53.72 104.227 54.0133 103.8 54.44C103.373 54.8133 103.027 55.56 102.76 56.68L91.88 103.72C91.6667 104.84 91.6667 105.587 91.88 105.96C92.1467 106.333 92.8133 106.627 93.88 106.84L95.48 107.16C96.1733 107.32 96.52 107.613 96.52 108.04C96.52 108.68 96.04 109 95.08 109H80.68C79.9333 109 79.56 108.707 79.56 108.12C79.56 107.533 80.04 107.187 81 107.08L82.92 106.84C84.0933 106.68 84.8933 106.387 85.32 105.96C85.8 105.533 86.1467 104.76 86.36 103.64L91.48 81.48C91.64 80.7333 91.3733 80.36 90.68 80.36H74.84C74.04 80.36 73.56 80.7333 73.4 81.48L68.28 103.64C68.0667 104.76 68.0667 105.533 68.28 105.96C68.5467 106.387 69.2133 106.68 70.28 106.84L72.04 107.08C72.7867 107.133 73.16 107.453 73.16 108.04C73.16 108.68 72.6533 109 71.64 109H57.24Z" fill="#53081B"/>
<path d="M105.2 110C104.453 110 104.08 109.733 104.08 109.2C104.08 108.667 104.507 108.32 105.36 108.16L108.72 107.6C109.787 107.44 110.587 107.173 111.12 106.8C111.653 106.373 112.027 105.6 112.24 104.48L123.36 56.48C123.52 55.7333 123.44 55.2 123.12 54.88C122.853 54.56 122.213 54.4 121.2 54.4C119.387 54.4 117.387 55.1467 115.2 56.64C113.067 58.08 111.147 60.8 109.44 64.8L108.16 67.84C107.893 68.5333 107.44 68.88 106.8 68.88C106.053 68.88 105.813 68.4267 106.08 67.52L110.08 53.04C110.4 51.8133 110.987 51.2 111.84 51.2C112.32 51.2 112.693 51.3067 112.96 51.52C113.28 51.68 113.787 51.8667 114.48 52.08C115.173 52.2933 116.373 52.4 118.08 52.4H135.92C137.627 52.4 138.88 52.2933 139.68 52.08C140.533 51.8667 141.147 51.68 141.52 51.52C141.947 51.3067 142.32 51.2 142.64 51.2C143.547 51.2 143.867 51.8133 143.6 53.04L141.04 67.52C140.88 68.4267 140.427 68.88 139.68 68.88C138.987 68.88 138.693 68.5333 138.8 67.84L138.96 65.84C139.28 61.8933 138.773 59.0133 137.44 57.2C136.107 55.3333 134.24 54.4 131.84 54.4C130.827 54.4 130.107 54.56 129.68 54.88C129.307 55.2 129.04 55.7333 128.88 56.48L117.76 104.48C117.493 105.6 117.52 106.373 117.84 106.8C118.213 107.173 118.907 107.44 119.92 107.6L123.68 108.16C124.267 108.213 124.56 108.507 124.56 109.04C124.56 109.68 124.133 110 123.28 110H105.2Z" fill="#53081B"/>
<path d="M102.72 157.2C102.453 157.2 102.213 157.12 102 156.96C101.787 156.8 101.68 156.453 101.68 155.92L100.88 107.12C100.88 106.747 100.747 106.56 100.48 106.56C100.267 106.56 100.107 106.72 100 107.04L88.24 151.12C87.8667 152.613 87.84 153.76 88.16 154.56C88.5333 155.307 89.36 155.787 90.64 156L91.6 156.16C92.24 156.213 92.56 156.507 92.56 157.04C92.56 157.68 92.0533 158 91.04 158H79.76C78.96 158 78.56 157.733 78.56 157.2C78.56 156.613 78.9867 156.267 79.84 156.16L80.96 156C82.4 155.787 83.4667 155.307 84.16 154.56C84.8533 153.76 85.3867 152.613 85.76 151.12L97.84 105.68C98.1067 104.56 98.1067 103.813 97.84 103.44C97.5733 103.067 96.8533 102.773 95.68 102.56L94.32 102.32C93.4667 102.16 93.04 101.813 93.04 101.28C93.04 100.693 93.52 100.4 94.48 100.4H104.08C105.627 100.4 106.4 101.2 106.4 102.8L106.88 142.56C106.88 142.933 106.987 143.147 107.2 143.2C107.467 143.2 107.68 143.04 107.84 142.72L127.2 102.4C127.84 101.067 128.853 100.4 130.24 100.4H139.92C140.56 100.4 140.88 100.667 140.88 101.2C140.88 101.733 140.427 102.08 139.52 102.24L137.6 102.56C136.427 102.773 135.627 103.067 135.2 103.44C134.773 103.813 134.427 104.56 134.16 105.68L124.88 152.72C124.667 153.84 124.667 154.587 124.88 154.96C125.147 155.333 125.813 155.627 126.88 155.84L128.24 156.08C128.773 156.133 129.12 156.267 129.28 156.48C129.44 156.64 129.52 156.827 129.52 157.04C129.52 157.68 129.04 158 128.08 158H113.84C113.093 158 112.72 157.733 112.72 157.2C112.72 156.667 113.147 156.32 114 156.16L115.92 155.84C117.093 155.627 117.893 155.333 118.32 154.96C118.8 154.587 119.147 153.84 119.36 152.72L128.4 107.36C128.507 106.987 128.427 106.773 128.16 106.72C127.893 106.613 127.68 106.72 127.52 107.04L104.16 155.92C103.947 156.453 103.707 156.8 103.44 156.96C103.227 157.12 102.987 157.2 102.72 157.2Z" fill="#53081B"/>
</svg>
